<?xml version="1.0" encoding="UTF-8"?>
<svg xmlns="http://www.w3.org/2000/svg" xmlns:xlink="http://www.w3.org/1999/xlink" width="277.375916pt" height="271.676178pt" viewBox="0 0 277.375916 271.676178" version="1.1">
<defs>
<clipPath id="clip1">
  <path d="M 0 256 L 12 256 L 12 271.675781 L 0 271.675781 Z M 0 256 "/>
</clipPath>
<clipPath id="clip2">
  <path d="M 13 256 L 23 256 L 23 271.675781 L 13 271.675781 Z M 13 256 "/>
</clipPath>
<clipPath id="clip3">
  <path d="M 24 255 L 40 255 L 40 271.675781 L 24 271.675781 Z M 24 255 "/>
</clipPath>
<clipPath id="clip4">
  <path d="M 41 256 L 57 256 L 57 271.675781 L 41 271.675781 Z M 41 256 "/>
</clipPath>
<clipPath id="clip5">
  <path d="M 58 255 L 75 255 L 75 271.675781 L 58 271.675781 Z M 58 255 "/>
</clipPath>
<clipPath id="clip6">
  <path d="M 77 256 L 86 256 L 86 271.675781 L 77 271.675781 Z M 77 256 "/>
</clipPath>
<clipPath id="clip7">
  <path d="M 86 255 L 103 255 L 103 271.675781 L 86 271.675781 Z M 86 255 "/>
</clipPath>
<clipPath id="clip8">
  <path d="M 104 255 L 121 255 L 121 271.675781 L 104 271.675781 Z M 104 255 "/>
</clipPath>
<clipPath id="clip9">
  <path d="M 122 250 L 129 250 L 129 271.675781 L 122 271.675781 Z M 122 250 "/>
</clipPath>
<clipPath id="clip10">
  <path d="M 127 256 L 144 256 L 144 271.675781 L 127 271.675781 Z M 127 256 "/>
</clipPath>
<clipPath id="clip11">
  <path d="M 154 255 L 171 255 L 171 271.675781 L 154 271.675781 Z M 154 255 "/>
</clipPath>
<clipPath id="clip12">
  <path d="M 172 255 L 183 255 L 183 271.675781 L 172 271.675781 Z M 172 255 "/>
</clipPath>
<clipPath id="clip13">
  <path d="M 184 255 L 200 255 L 200 271.675781 L 184 271.675781 Z M 184 255 "/>
</clipPath>
<clipPath id="clip14">
  <path d="M 201 250 L 218 250 L 218 271.675781 L 201 271.675781 Z M 201 250 "/>
</clipPath>
<clipPath id="clip15">
  <path d="M 220 255 L 238 255 L 238 271.675781 L 220 271.675781 Z M 220 255 "/>
</clipPath>
<clipPath id="clip16">
  <path d="M 240 255 L 245 255 L 245 271.675781 L 240 271.675781 Z M 240 255 "/>
</clipPath>
<clipPath id="clip17">
  <path d="M 247 255 L 263 255 L 263 271.675781 L 247 271.675781 Z M 247 255 "/>
</clipPath>
<clipPath id="clip18">
  <path d="M 261 255 L 277.375 255 L 277.375 271.675781 L 261 271.675781 Z M 261 255 "/>
</clipPath>
<clipPath id="clip19">
  <path d="M 234 45 L 277.375 45 L 277.375 184 L 234 184 Z M 234 45 "/>
</clipPath>
</defs>
<g id="surface1">
<path style=" stroke:none;fill-rule:nonzero;fill:rgb(14.509583%,13.725281%,24.705505%);fill-opacity:1;" d="M 0.273438 239.808594 C 0.273438 235.425781 3.828125 231.867188 8.210938 231.867188 C 11.175781 231.867188 13.753906 233.492188 15.121094 235.886719 L 13.703125 236.6875 C 12.644531 234.78125 10.585938 233.519531 8.210938 233.519531 C 4.730469 233.519531 1.921875 236.300781 1.921875 239.808594 C 1.921875 243.3125 4.730469 246.097656 8.210938 246.097656 C 10.585938 246.097656 12.644531 244.832031 13.703125 242.925781 L 15.121094 243.726562 C 13.753906 246.121094 11.175781 247.746094 8.210938 247.746094 C 3.828125 247.746094 0.273438 244.1875 0.273438 239.808594 "/>
<path style=" stroke:none;fill-rule:nonzero;fill:rgb(14.509583%,13.725281%,24.705505%);fill-opacity:1;" d="M 19.628906 233.671875 L 19.628906 239.007812 L 25.5625 239.007812 L 25.5625 240.605469 L 19.628906 240.605469 L 19.628906 245.941406 L 26.433594 245.941406 L 26.433594 247.539062 L 17.980469 247.539062 L 17.980469 232.074219 L 26.433594 232.074219 L 26.433594 233.671875 Z M 19.628906 233.671875 "/>
<path style=" stroke:none;fill-rule:nonzero;fill:rgb(14.509583%,13.725281%,24.705505%);fill-opacity:1;" d="M 42.597656 232.074219 L 42.597656 247.539062 L 41.050781 247.539062 L 31.511719 234.832031 L 31.511719 247.539062 L 29.863281 247.539062 L 29.863281 232.074219 L 31.410156 232.074219 L 40.976562 244.78125 L 40.976562 232.074219 Z M 42.597656 232.074219 "/>
<path style=" stroke:none;fill-rule:nonzero;fill:rgb(14.509583%,13.725281%,24.705505%);fill-opacity:1;" d="M 54.917969 233.722656 L 50.640625 233.722656 L 50.640625 247.539062 L 48.988281 247.539062 L 48.988281 233.722656 L 44.710938 233.722656 L 44.710938 232.074219 L 54.917969 232.074219 Z M 54.917969 233.722656 "/>
<path style=" stroke:none;fill-rule:nonzero;fill:rgb(14.509583%,13.725281%,24.705505%);fill-opacity:1;" d="M 62.472656 238.980469 C 64.042969 238.980469 65.230469 237.925781 65.230469 236.351562 C 65.230469 234.808594 64.019531 233.722656 62.472656 233.722656 L 58.683594 233.722656 L 58.683594 238.980469 Z M 67.859375 247.539062 L 65.976562 247.539062 L 61.59375 240.554688 L 58.683594 240.554688 L 58.683594 247.539062 L 57.03125 247.539062 L 57.03125 232.074219 L 62.574219 232.074219 C 64.949219 232.074219 66.878906 233.980469 66.878906 236.40625 C 66.878906 238.492188 65.332031 240.195312 63.296875 240.476562 Z M 67.859375 247.539062 "/>
<path style=" stroke:none;fill-rule:nonzero;fill:rgb(14.509583%,13.725281%,24.705505%);fill-opacity:1;" d="M 83.582031 239.808594 C 83.582031 236.300781 80.796875 233.519531 77.292969 233.519531 C 73.8125 233.519531 71.003906 236.300781 71.003906 239.808594 C 71.003906 243.3125 73.8125 246.097656 77.292969 246.097656 C 80.796875 246.097656 83.582031 243.3125 83.582031 239.808594 M 69.355469 239.808594 C 69.355469 235.425781 72.910156 231.867188 77.292969 231.867188 C 81.703125 231.867188 85.234375 235.425781 85.234375 239.808594 C 85.234375 244.1875 81.703125 247.746094 77.292969 247.746094 C 72.910156 247.746094 69.355469 244.1875 69.355469 239.808594 "/>
<path style=" stroke:none;fill-rule:nonzero;fill:rgb(14.509583%,13.725281%,24.705505%);fill-opacity:1;" d="M 102.316406 242.359375 L 99.425781 234.035156 L 96.515625 242.359375 Z M 102.855469 243.929688 L 95.972656 243.929688 L 94.710938 247.539062 L 92.90625 247.539062 L 98.5 232.074219 L 100.332031 232.074219 L 105.925781 247.539062 L 104.121094 247.539062 Z M 102.855469 243.929688 "/>
<path style=" stroke:none;fill-rule:nonzero;fill:rgb(14.509583%,13.725281%,24.705505%);fill-opacity:1;" d="M 107.730469 242.460938 L 107.730469 232.074219 L 109.378906 232.074219 L 109.378906 242.203125 C 109.378906 244.445312 111.132812 246.097656 113.527344 246.097656 C 115.925781 246.097656 117.703125 244.445312 117.703125 242.203125 L 117.703125 232.074219 L 119.355469 232.074219 L 119.355469 242.460938 C 119.355469 245.503906 116.90625 247.746094 113.527344 247.746094 C 110.175781 247.746094 107.730469 245.503906 107.730469 242.460938 "/>
<path style=" stroke:none;fill-rule:nonzero;fill:rgb(14.509583%,13.725281%,24.705505%);fill-opacity:1;" d="M 121.90625 244.601562 L 123.402344 243.722656 C 123.941406 245.144531 125.207031 246.097656 126.957031 246.097656 C 128.6875 246.097656 130.050781 245.167969 130.050781 243.519531 C 130.050781 239.679688 122.523438 240.917969 122.523438 235.941406 C 122.523438 233.414062 124.457031 231.867188 126.828125 231.867188 C 128.609375 231.867188 130.101562 232.71875 130.953125 233.800781 L 129.664062 234.882812 C 129.042969 234.007812 128.066406 233.515625 126.878906 233.515625 C 125.4375 233.515625 124.175781 234.265625 124.175781 235.8125 C 124.175781 239.5 131.703125 238.210938 131.703125 243.464844 C 131.703125 246.171875 129.558594 247.75 126.929688 247.75 C 124.640625 247.75 122.707031 246.507812 121.90625 244.601562 "/>
<path style=" stroke:none;fill-rule:nonzero;fill:rgb(14.509583%,13.725281%,24.705505%);fill-opacity:1;" d="M 142.886719 233.722656 L 138.609375 233.722656 L 138.609375 247.539062 L 136.957031 247.539062 L 136.957031 233.722656 L 132.679688 233.722656 L 132.679688 232.074219 L 142.886719 232.074219 Z M 142.886719 233.722656 "/>
<path style=" stroke:none;fill-rule:nonzero;fill:rgb(14.509583%,13.725281%,24.705505%);fill-opacity:1;" d="M 150.441406 238.980469 C 152.011719 238.980469 153.199219 237.925781 153.199219 236.351562 C 153.199219 234.808594 151.988281 233.722656 150.441406 233.722656 L 146.652344 233.722656 L 146.652344 238.980469 Z M 155.828125 247.539062 L 153.945312 247.539062 L 149.5625 240.554688 L 146.652344 240.554688 L 146.652344 247.539062 L 145.003906 247.539062 L 145.003906 232.074219 L 150.542969 232.074219 C 152.917969 232.074219 154.847656 233.980469 154.847656 236.40625 C 154.847656 238.492188 153.300781 240.195312 151.265625 240.476562 Z M 155.828125 247.539062 "/>
<path style=" stroke:none;fill-rule:nonzero;fill:rgb(14.509583%,13.725281%,24.705505%);fill-opacity:1;" d="M 165.46875 242.359375 L 162.582031 234.035156 L 159.667969 242.359375 Z M 166.011719 243.929688 L 159.125 243.929688 L 157.863281 247.539062 L 156.0625 247.539062 L 161.65625 232.074219 L 163.484375 232.074219 L 169.078125 247.539062 L 167.273438 247.539062 Z M 166.011719 243.929688 "/>
<path style=" stroke:none;fill-rule:nonzero;fill:rgb(14.509583%,13.725281%,24.705505%);fill-opacity:1;" d="M 178.355469 245.890625 L 178.355469 247.539062 L 170.960938 247.539062 L 170.960938 232.074219 L 172.609375 232.074219 L 172.609375 245.890625 Z M 178.355469 245.890625 "/>
<path style=" stroke:none;fill-rule:nonzero;fill:rgb(14.509583%,13.725281%,24.705505%);fill-opacity:1;" d="M 190.882812 245.890625 C 194.3125 245.890625 196.996094 243.289062 196.996094 239.804688 C 196.996094 236.324219 194.3125 233.722656 190.882812 233.722656 L 188.308594 233.722656 L 188.308594 245.890625 Z M 186.683594 232.074219 L 190.910156 232.074219 C 195.164062 232.074219 198.644531 235.527344 198.644531 239.804688 C 198.644531 244.085938 195.164062 247.539062 190.910156 247.539062 L 186.683594 247.539062 Z M 186.683594 232.074219 "/>
<path style=" stroke:none;fill-rule:nonzero;fill:rgb(14.509583%,13.725281%,24.705505%);fill-opacity:1;" d="M 203.566406 233.671875 L 203.566406 239.007812 L 209.496094 239.007812 L 209.496094 240.605469 L 203.566406 240.605469 L 203.566406 245.941406 L 210.371094 245.941406 L 210.371094 247.539062 L 201.917969 247.539062 L 201.917969 232.074219 L 210.371094 232.074219 L 210.371094 233.671875 Z M 203.566406 233.671875 "/>
<g clip-path="url(#clip1)" clip-rule="nonzero">
<path style=" stroke:none;fill-rule:nonzero;fill:rgb(14.509583%,13.725281%,24.705505%);fill-opacity:1;" d="M 11.820312 259.429688 L 8.03125 259.429688 L 8.03125 271.46875 L 4.109375 271.46875 L 4.109375 259.429688 L 0.320312 259.429688 L 0.320312 256.003906 L 11.820312 256.003906 Z M 11.820312 259.429688 "/>
</g>
<g clip-path="url(#clip2)" clip-rule="nonzero">
<path style=" stroke:none;fill-rule:nonzero;fill:rgb(14.509583%,13.725281%,24.705505%);fill-opacity:1;" d="M 17.078125 259.429688 L 17.078125 262.035156 L 21.84375 262.035156 L 21.84375 265.4375 L 17.078125 265.4375 L 17.078125 268.042969 L 22.722656 268.042969 L 22.722656 271.46875 L 13.132812 271.46875 L 13.132812 256.003906 L 22.722656 256.003906 L 22.722656 259.429688 Z M 17.078125 259.429688 "/>
</g>
<g clip-path="url(#clip3)" clip-rule="nonzero">
<path style=" stroke:none;fill-rule:nonzero;fill:rgb(14.509583%,13.725281%,24.705505%);fill-opacity:1;" d="M 24.476562 263.738281 C 24.476562 259.355469 28.007812 255.796875 32.414062 255.796875 C 35.480469 255.796875 38.164062 257.550781 39.476562 260.128906 L 36.074219 261.855469 C 35.402344 260.515625 34.0625 259.664062 32.414062 259.664062 C 30.066406 259.664062 28.316406 261.390625 28.316406 263.738281 C 28.316406 266.082031 30.066406 267.808594 32.414062 267.808594 C 34.0625 267.808594 35.402344 266.957031 36.074219 265.621094 L 39.476562 267.347656 C 38.164062 269.921875 35.480469 271.675781 32.414062 271.675781 C 28.007812 271.675781 24.476562 268.117188 24.476562 263.738281 "/>
</g>
<g clip-path="url(#clip4)" clip-rule="nonzero">
<path style=" stroke:none;fill-rule:nonzero;fill:rgb(14.509583%,13.725281%,24.705505%);fill-opacity:1;" d="M 56.566406 256.003906 L 56.566406 271.472656 L 52.417969 271.472656 L 45.457031 261.984375 L 45.457031 271.472656 L 41.511719 271.472656 L 41.511719 256.003906 L 45.636719 256.003906 L 52.625 265.464844 L 52.625 256.003906 Z M 56.566406 256.003906 "/>
</g>
<g clip-path="url(#clip5)" clip-rule="nonzero">
<path style=" stroke:none;fill-rule:nonzero;fill:rgb(14.509583%,13.725281%,24.705505%);fill-opacity:1;" d="M 70.875 263.738281 C 70.875 261.390625 69.121094 259.664062 66.800781 259.664062 C 64.453125 259.664062 62.703125 261.390625 62.703125 263.738281 C 62.703125 266.082031 64.453125 267.808594 66.800781 267.808594 C 69.121094 267.808594 70.875 266.082031 70.875 263.738281 M 58.859375 263.738281 C 58.859375 259.355469 62.394531 255.796875 66.800781 255.796875 C 71.183594 255.796875 74.742188 259.355469 74.742188 263.738281 C 74.742188 268.117188 71.183594 271.675781 66.800781 271.675781 C 62.394531 271.675781 58.859375 268.117188 58.859375 263.738281 "/>
</g>
<g clip-path="url(#clip6)" clip-rule="nonzero">
<path style=" stroke:none;fill-rule:nonzero;fill:rgb(14.509583%,13.725281%,24.705505%);fill-opacity:1;" d="M 85.875 268.042969 L 85.875 271.46875 L 77.007812 271.46875 L 77.007812 256.003906 L 80.953125 256.003906 L 80.953125 268.042969 Z M 85.875 268.042969 "/>
</g>
<g clip-path="url(#clip7)" clip-rule="nonzero">
<path style=" stroke:none;fill-rule:nonzero;fill:rgb(14.509583%,13.725281%,24.705505%);fill-opacity:1;" d="M 98.765625 263.738281 C 98.765625 261.390625 97.011719 259.664062 94.691406 259.664062 C 92.34375 259.664062 90.59375 261.390625 90.59375 263.738281 C 90.59375 266.082031 92.34375 267.808594 94.691406 267.808594 C 97.011719 267.808594 98.765625 266.082031 98.765625 263.738281 M 86.753906 263.738281 C 86.753906 259.355469 90.285156 255.796875 94.691406 255.796875 C 99.074219 255.796875 102.628906 259.355469 102.628906 263.738281 C 102.628906 268.117188 99.074219 271.675781 94.691406 271.675781 C 90.285156 271.675781 86.753906 268.117188 86.753906 263.738281 "/>
</g>
<g clip-path="url(#clip8)" clip-rule="nonzero">
<path style=" stroke:none;fill-rule:nonzero;fill:rgb(14.509583%,13.725281%,24.705505%);fill-opacity:1;" d="M 120.238281 262.886719 L 120.238281 263.738281 C 120.238281 268.121094 116.679688 271.675781 112.296875 271.675781 C 107.890625 271.675781 104.355469 268.121094 104.355469 263.738281 C 104.355469 259.355469 107.890625 255.796875 112.296875 255.796875 C 115.363281 255.796875 118.046875 257.550781 119.359375 260.128906 L 115.957031 261.855469 C 115.289062 260.515625 113.949219 259.664062 112.296875 259.664062 C 109.953125 259.664062 108.199219 261.390625 108.199219 263.738281 C 108.199219 266.082031 109.953125 267.808594 112.296875 267.808594 C 113.816406 267.808594 115.082031 267.058594 115.804688 265.902344 L 112.269531 265.902344 L 112.269531 262.886719 Z M 120.238281 262.886719 "/>
</g>
<g clip-path="url(#clip9)" clip-rule="nonzero">
<path style=" stroke:none;fill-rule:nonzero;fill:rgb(14.509583%,13.725281%,24.705505%);fill-opacity:1;" d="M 125.390625 250.847656 L 128.871094 250.847656 L 125.625 254.714844 L 123.125 254.714844 Z M 122.636719 256.003906 L 126.578125 256.003906 L 126.578125 271.472656 L 122.636719 271.472656 Z M 122.636719 256.003906 "/>
</g>
<g clip-path="url(#clip10)" clip-rule="nonzero">
<path style=" stroke:none;fill-rule:nonzero;fill:rgb(14.509583%,13.725281%,24.705505%);fill-opacity:1;" d="M 137.171875 265.566406 L 135.445312 260.101562 L 133.746094 265.566406 Z M 138.152344 268.761719 L 132.738281 268.761719 L 131.886719 271.46875 L 127.632812 271.46875 L 133.230469 256.003906 L 137.636719 256.003906 L 143.230469 271.46875 L 139.003906 271.46875 Z M 138.152344 268.761719 "/>
</g>
<g clip-path="url(#clip11)" clip-rule="nonzero">
<path style=" stroke:none;fill-rule:nonzero;fill:rgb(14.509583%,13.725281%,24.705505%);fill-opacity:1;" d="M 170.269531 262.78125 L 170.269531 263.632812 C 170.269531 268.015625 166.710938 271.574219 162.332031 271.574219 C 157.921875 271.574219 154.390625 268.015625 154.390625 263.632812 C 154.390625 259.253906 157.921875 255.691406 162.332031 255.691406 C 165.398438 255.691406 168.082031 257.445312 169.394531 260.023438 L 165.992188 261.75 C 165.324219 260.410156 163.984375 259.558594 162.332031 259.558594 C 159.984375 259.558594 158.234375 261.289062 158.234375 263.632812 C 158.234375 265.976562 159.984375 267.707031 162.332031 267.707031 C 163.851562 267.707031 165.117188 266.957031 165.839844 265.796875 L 162.304688 265.796875 L 162.304688 262.78125 Z M 170.269531 262.78125 "/>
</g>
<g clip-path="url(#clip12)" clip-rule="nonzero">
<path style=" stroke:none;fill-rule:nonzero;fill:rgb(14.509583%,13.725281%,24.705505%);fill-opacity:1;" d="M 176.613281 259.328125 L 176.613281 261.929688 L 181.382812 261.929688 L 181.382812 265.335938 L 176.613281 265.335938 L 176.613281 267.9375 L 182.257812 267.9375 L 182.257812 271.367188 L 172.667969 271.367188 L 172.667969 255.902344 L 182.257812 255.902344 L 182.257812 259.328125 Z M 176.613281 259.328125 "/>
</g>
<g clip-path="url(#clip13)" clip-rule="nonzero">
<path style=" stroke:none;fill-rule:nonzero;fill:rgb(14.509583%,13.725281%,24.705505%);fill-opacity:1;" d="M 199.605469 255.898438 L 199.605469 271.367188 L 195.453125 271.367188 L 188.496094 261.878906 L 188.496094 271.367188 L 184.550781 271.367188 L 184.550781 255.898438 L 188.675781 255.898438 L 195.660156 265.359375 L 195.660156 255.898438 Z M 199.605469 255.898438 "/>
</g>
<g clip-path="url(#clip14)" clip-rule="nonzero">
<path style=" stroke:none;fill-rule:nonzero;fill:rgb(14.509583%,13.725281%,24.705505%);fill-opacity:1;" d="M 210.636719 250.746094 L 214.117188 250.746094 L 210.871094 254.613281 L 208.371094 254.613281 Z M 213.910156 263.632812 C 213.910156 261.285156 212.160156 259.558594 209.839844 259.558594 C 207.492188 259.558594 205.742188 261.285156 205.742188 263.632812 C 205.742188 265.976562 207.492188 267.707031 209.839844 267.707031 C 212.160156 267.707031 213.910156 265.976562 213.910156 263.632812 M 201.898438 263.632812 C 201.898438 259.253906 205.429688 255.691406 209.839844 255.691406 C 214.222656 255.691406 217.777344 259.253906 217.777344 263.632812 C 217.777344 268.015625 214.222656 271.574219 209.839844 271.574219 C 205.429688 271.574219 201.898438 268.015625 201.898438 263.632812 "/>
</g>
<g clip-path="url(#clip15)" clip-rule="nonzero">
<path style=" stroke:none;fill-rule:nonzero;fill:rgb(14.509583%,13.725281%,24.705505%);fill-opacity:1;" d="M 237.730469 255.898438 L 237.730469 271.367188 L 233.789062 271.367188 L 233.789062 263.09375 L 229.945312 271.367188 L 227.832031 271.367188 L 223.988281 263.039062 L 223.988281 271.367188 L 220.046875 271.367188 L 220.046875 255.898438 L 224.324219 255.898438 L 228.890625 265.746094 L 233.476562 255.898438 Z M 237.730469 255.898438 "/>
</g>
<g clip-path="url(#clip16)" clip-rule="nonzero">
<path style=" stroke:none;fill-rule:nonzero;fill:rgb(14.509583%,13.725281%,24.705505%);fill-opacity:1;" d="M 240.695312 255.902344 L 244.636719 255.902344 L 244.636719 271.367188 L 240.695312 271.367188 Z M 240.695312 255.902344 "/>
</g>
<g clip-path="url(#clip17)" clip-rule="nonzero">
<path style=" stroke:none;fill-rule:nonzero;fill:rgb(14.509583%,13.725281%,24.705505%);fill-opacity:1;" d="M 247.035156 263.632812 C 247.035156 259.25 250.566406 255.691406 254.976562 255.691406 C 258.039062 255.691406 260.722656 257.445312 262.039062 260.023438 L 258.632812 261.75 C 257.964844 260.410156 256.625 259.558594 254.976562 259.558594 C 252.628906 259.558594 250.875 261.289062 250.875 263.632812 C 250.875 265.976562 252.628906 267.707031 254.976562 267.707031 C 256.625 267.707031 257.964844 266.855469 258.632812 265.515625 L 262.039062 267.242188 C 260.722656 269.820312 258.039062 271.574219 254.976562 271.574219 C 250.566406 271.574219 247.035156 268.015625 247.035156 263.632812 "/>
</g>
<g clip-path="url(#clip18)" clip-rule="nonzero">
<path style=" stroke:none;fill-rule:nonzero;fill:rgb(14.509583%,13.725281%,24.705505%);fill-opacity:1;" d="M 271.316406 265.460938 L 269.589844 260 L 267.890625 265.460938 Z M 272.296875 268.660156 L 266.882812 268.660156 L 266.035156 271.363281 L 261.78125 271.363281 L 267.375 255.898438 L 271.78125 255.898438 L 277.375 271.363281 L 273.144531 271.363281 Z M 272.296875 268.660156 "/>
</g>
<path style=" stroke:none;fill-rule:nonzero;fill:rgb(93.331909%,15.293884%,24.705505%);fill-opacity:1;" d="M 154.558594 91.496094 L 141.097656 91.496094 L 141.097656 0 L 174.777344 0 L 174.777344 91.496094 L 161.375 91.496094 "/>
<path style=" stroke:none;fill-rule:nonzero;fill:rgb(9.411621%,53.72467%,77.645874%);fill-opacity:1;" d="M 190.328125 123.441406 L 174.058594 123.441406 L 174.058594 45.75 L 214.769531 45.75 L 214.769531 123.441406 L 198.570312 123.441406 "/>
<path style=" stroke:none;fill-rule:nonzero;fill:rgb(3.921509%,64.704895%,35.68573%);fill-opacity:1;" d="M 216.390625 84.59375 L 196.5 84.59375 L 196.5 6.902344 L 246.273438 6.902344 L 246.273438 84.59375 L 226.464844 84.59375 "/>
<g clip-path="url(#clip19)" clip-rule="nonzero">
<path style=" stroke:none;fill-rule:nonzero;fill:rgb(97.253418%,63.528442%,8.627319%);fill-opacity:1;" d="M 251.863281 183.265625 L 234.886719 183.265625 L 234.886719 45.75 L 277.375 45.75 L 277.375 183.265625 L 260.46875 183.265625 "/>
</g>
<path style=" stroke:none;fill-rule:nonzero;fill:rgb(14.509583%,13.725281%,24.705505%);fill-opacity:1;" d="M 78.101562 167.949219 L 70.703125 189.800781 L 85.414062 189.800781 Z M 92.378906 211.21875 L 89.507812 202.859375 L 66.609375 202.859375 L 63.738281 211.21875 L 46.761719 211.21875 L 68.613281 153.148438 L 87.503906 153.148438 L 109.355469 211.21875 Z M 92.378906 211.21875 "/>
<path style=" stroke:none;fill-rule:nonzero;fill:rgb(14.509583%,13.725281%,24.705505%);fill-opacity:1;" d="M 121.894531 211.21875 L 121.894531 166.207031 L 105.613281 166.207031 L 105.613281 153.148438 L 153.058594 153.148438 L 153.058594 166.207031 L 136.867188 166.207031 L 136.867188 211.21875 Z M 121.894531 211.21875 "/>
<path style=" stroke:none;fill-rule:nonzero;fill:rgb(14.509583%,13.725281%,24.705505%);fill-opacity:1;" d="M 156.019531 182.226562 C 156.019531 163.769531 170.121094 152.191406 187.445312 152.191406 C 200.417969 152.191406 208.253906 159.070312 212.257812 166.292969 L 199.722656 172.824219 C 197.542969 168.996094 193.105469 165.425781 187.445312 165.425781 C 177.957031 165.425781 171.253906 172.648438 171.253906 182.226562 C 171.253906 191.714844 177.957031 199.027344 187.445312 199.027344 C 193.890625 199.027344 198.332031 195.371094 200.332031 190.933594 L 185.097656 190.933594 L 185.097656 177.785156 L 216.785156 177.785156 C 216.785156 199.726562 204.945312 212.261719 186.054688 212.261719 C 170.121094 212.261719 156.019531 200.683594 156.019531 182.226562 "/>
<path style=" stroke:none;fill-rule:nonzero;fill:rgb(14.509583%,13.725281%,24.705505%);fill-opacity:1;" d="M 0 190.484375 C 0 178.292969 9.824219 168.394531 22.089844 168.394531 C 30.625 168.394531 38.085938 173.273438 41.742188 180.445312 L 32.273438 185.25 C 30.410156 181.523438 26.679688 179.15625 22.089844 179.15625 C 15.5625 179.15625 10.6875 183.957031 10.6875 190.484375 C 10.6875 197.015625 15.5625 201.816406 22.089844 201.816406 C 26.679688 201.816406 30.410156 199.449219 32.273438 195.722656 L 41.742188 200.527344 C 38.085938 207.699219 30.625 212.574219 22.089844 212.574219 C 9.824219 212.574219 0 202.679688 0 190.484375 "/>
</g>
</svg>
