<?xml version="1.0" encoding="UTF-8" standalone="no"?>
<svg
   version="1.1"
   width="341.96832"
   height="131.76505"
   viewBox="0 0 341.96832 131.76505"
   id="svg41"
   sodipodi:docname="logo_umag1.svg"
   inkscape:version="1.3.2 (091e20ef0f, 2023-11-25)"
   xmlns:inkscape="http://www.inkscape.org/namespaces/inkscape"
   xmlns:sodipodi="http://sodipodi.sourceforge.net/DTD/sodipodi-0.dtd"
   xmlns:xlink="http://www.w3.org/1999/xlink"
   xmlns="http://www.w3.org/2000/svg"
   xmlns:svg="http://www.w3.org/2000/svg">
  <sodipodi:namedview
     id="namedview41"
     pagecolor="#ffffff"
     bordercolor="#000000"
     borderopacity="0.25"
     inkscape:showpageshadow="2"
     inkscape:pageopacity="0.0"
     inkscape:pagecheckerboard="0"
     inkscape:deskcolor="#d1d1d1"
     inkscape:zoom="2.3270202"
     inkscape:cx="170.81932"
     inkscape:cy="96.475312"
     inkscape:window-width="3840"
     inkscape:window-height="2083"
     inkscape:window-x="0"
     inkscape:window-y="0"
     inkscape:window-maximized="1"
     inkscape:current-layer="svg41" />
  <defs
     id="defs3">
    <clipPath
       id="clip_0">
      <path
         transform="matrix(1,0,0,-1,0,792)"
         d="M 0,0 H 612 V 792 H 0 Z"
         id="path1" />
    </clipPath>
    <clipPath
       id="clip_1">
      <path
         transform="matrix(1,0,0,-1,0,792)"
         d="M 104.598,-71.669 H 612.283 V 303.874 H 104.598 Z"
         id="path2" />
    </clipPath>
    <path
       id="font_2_89"
       d="m 0.12399292,0 c -0.0113322,0 -0.0196635,0.0026652 -0.0249939,0.00799561 -0.0053304,0.00534057 -0.0079956,0.01367696 -0.0079956,0.02500915 v 0.64399722 c 0,0.0166626 0.01532999,0.0249939 0.04598999,0.0249939 h 0.0149994 c 0.0306702,0 0.0460053,-0.008331 0.0460053,-0.0249939 V 0.09199524 h 0.25799561 c 0.008006,0 0.0138397,-0.0028331 0.0175018,-0.0084991 0.003672,-0.0056661 0.005508,-0.01483155 0.005508,-0.02749634 V 0.03599548 c 0,-0.01266479 -0.001836,-0.02183024 -0.005508,-0.02749633 C 0.46983338,0.00283305 0.46399943,0 0.45599366,0 Z" />
    <path
       id="font_2_314"
       d="m 0.28599549,-0.00700378 c -0.0766602,0 -0.13499451,0.02283223 -0.17500306,0.0684967 -0.03999837,0.04567465 -0.05999756,0.11184184 -0.05999756,0.19850158 0,0.0866699 0.02033488,0.15333559 0.06100464,0.19999696 0.0406698,0.0466715 0.0986684,0.0700073 0.17399598,0.0700073 0.0753377,0 0.13283791,-0.0231679 0.17250061,-0.0695038 0.0396729,-0.0463257 0.0595093,-0.11315917 0.0595093,-0.2005005 0,-0.0866597 -0.0196686,-0.15282693 -0.0590058,-0.19850158 -0.0393371,-0.04566447 -0.0970052,-0.0684967 -0.17300415,-0.0684967 m -0.001999,0.08500671 c 0.0440064,0 0.0765076,0.01499939 0.0975037,0.04499817 0.0209961,0.0299988 0.0314941,0.075999 0.0314941,0.1380005 0,0.0620016 -0.010498,0.10816955 -0.0314941,0.13850403 -0.0209961,0.0303345 -0.0534973,0.0455017 -0.0975037,0.0455017 -0.043335,0 -0.0753377,-0.0151672 -0.0960083,-0.0455017 -0.0206604,-0.0303345 -0.0309906,-0.0765025 -0.0309906,-0.13850403 0,-0.0620015 0.0101674,-0.10800172 0.0305023,-0.1380005 0.0203349,-0.02999878 0.0525004,-0.04499817 0.0964966,-0.04499817 z" />
    <path
       id="font_2_268"
       d="m 0.2559967,-0.21200562 c -0.0686645,0 -0.12183125,0.0105031 -0.15950012,0.0315094 -0.03766886,0.0209961 -0.05650329,0.0531616 -0.05650329,0.09649658 0,0.0279948 0.0081685,0.05266317 0.02450561,0.07400513 0.01633708,0.02133179 0.03850302,0.03732809 0.0664978,0.0479889 l 0.001007,0.003006 C 0.10467021,0.06099955 0.09100342,0.08766683 0.09100342,0.1210022 c 0,0.0406698 0.01899719,0.0733337 0.05699158,0.0979919 -0.0273336,0.0140076 -0.04833476,0.0333405 -0.06300354,0.0579987 -0.01465861,0.0246684 -0.02198792,0.0530039 -0.02198792,0.0850067 0,0.0513306 0.01800028,0.0921631 0.05400086,0.12249758 0.0360006,0.0303345 0.0856679,0.0455017 0.14900208,0.0455017 0.0193278,0 0.0406596,-0.002335 0.0639954,-0.007004 H 0.5059967 c 0.008006,0 0.0138397,-0.002833 0.0175019,-0.008499 0.003672,-0.005666 0.005508,-0.0148316 0.005508,-0.0274964 v -0.0130005 c 0,-0.0126648 -0.001836,-0.0216675 -0.005508,-0.0270081 -0.003662,-0.00533 -0.00916,-0.007996 -0.0164948,-0.007996 -0.0253398,0 -0.0460053,0.001002 -0.0619965,0.003006 l -0.001007,-0.001999 c 0.01533,-0.0213318 0.022995,-0.0473328 0.022995,-0.078003 0,-0.0506693 -0.0176697,-0.0911712 -0.053009,-0.12150572 -0.0353292,-0.0303243 -0.0839895,-0.0454864 -0.14598082,-0.0454864 -0.0566712,0 -0.0850067,-0.0190023 -0.0850067,-0.0570068 0,-0.0213318 0.009832,-0.0356649 0.0294952,-0.04299927 0.0196737,-0.0073344 0.0508423,-0.01366678 0.0935059,-0.01899719 0.0160014,-0.0013326 0.0273336,-0.0026652 0.0339966,-0.0039978 0.0473327,-0.0073344 0.0844981,-0.01983643 0.11149595,-0.03750611 0.0270081,-0.01766968 0.0405121,-0.0478363 0.0405121,-0.09049988 0,-0.04933675 -0.0205027,-0.08767192 -0.0615082,-0.11500549 -0.0409953,-0.0273336 -0.0991618,-0.0410004 -0.17449953,-0.0410004 M 0.2649994,0.272995 c 0.032664,0 0.0586599,0.006999 0.0779877,0.0209961 0.019338,0.0140076 0.029007,0.036677 0.029007,0.0680084 0,0.0313314 -0.009669,0.0539958 -0.029007,0.0679932 -0.0193278,0.0140076 -0.0453237,0.0210113 -0.0779877,0.0210113 -0.0320028,0 -0.0576731,-0.007004 -0.0770111,-0.0210113 -0.0193278,-0.0139974 -0.0289917,-0.0366618 -0.0289917,-0.0679932 0,-0.0313314 0.009664,-0.0540008 0.0289917,-0.0680084 0.019338,-0.0139974 0.0450084,-0.0209961 0.0770111,-0.0209961 m 0.001999,-0.40299989 c 0.0846659,0 0.1269989,0.0223338 0.1269989,0.06700135 0,0.01999919 -0.01,0.03366598 -0.0299988,0.04100037 -0.0199992,0.0073344 -0.0513305,0.01366679 -0.0939941,0.01899719 -0.0353394,0.00466919 -0.059672,0.00833638 -0.072998,0.01100159 -0.0413411,-0.01733399 -0.0620117,-0.04199728 -0.0620117,-0.07398987 0,-0.04267375 0.0440013,-0.06401063 0.1320038,-0.06401063 z" />
    <path
       id="font_2_357"
       d="m 0.23199463,-0.00700378 c -0.0366618,0 -0.068161,0.01116434 -0.0944977,0.03349304 C 0.11117045,0.04882813 0.0980072,0.08599854 0.0980072,0.13800049 V 0.43800355 H 0.05799866 c -0.0079956,0 -0.01382955,0.002833 -0.01750183,0.008499 -0.0036621,0.005666 -0.0054932,0.0148315 -0.0054932,0.0274963 v 0.0130005 c 0,0.0126648 0.0018311,0.0218303 0.0054932,0.0274964 0.0036723,0.005666 0.0095062,0.008499 0.01750183,0.008499 H 0.0980072 L 0.11099243,0.625 c 0.002004,0.0166626 0.0146739,0.0249939 0.0380097,0.0249939 h 0.0159912 c 0.0240072,0 0.0360107,-0.008331 0.0360107,-0.0249939 V 0.522995 h 0.0739899 c 0.008006,0 0.0138397,-0.002833 0.0175018,-0.008499 0.003672,-0.005666 0.005508,-0.0148316 0.005508,-0.0274964 v -0.0130005 c 0,-0.0126648 -0.001836,-0.0218302 -0.005508,-0.0274963 -0.003662,-0.005666 -0.009496,-0.008499 -0.0175018,-0.008499 H 0.20100403 V 0.14300537 c 0,-0.0240072 0.004166,-0.0408427 0.012497,-0.05050659 0.008331,-0.0096639 0.0204976,-0.01449585 0.036499,-0.01449585 0.009338,0 0.0171712,8.2906e-4 0.0234986,0.0024872 0.006337,0.0016683 0.0111694,0.0025024 0.0144958,0.0025024 0.006673,0 0.0123393,-0.0071665 0.0169983,-0.02149963 0.004669,-0.01433309 0.007004,-0.02516174 0.007004,-0.03248596 0,-0.02400716 -0.0266673,-0.03601074 -0.0800018,-0.03601074 z" />
    <path
       id="font_2_277"
       d="m 0.13200379,0.60899356 c -0.03466797,0 -0.05200196,0.009333 -0.05200196,0.0279998 v 0.0590058 c 0,0.0186665 0.01800028,0.0279998 0.05400086,0.0279998 0.034668,0 0.0520019,-0.009333 0.0520019,-0.0279998 V 0.6369934 c 0,-0.0186665 -0.0180003,-0.0279998 -0.0540008,-0.0279998 m -0.003998,-0.61099246 c -0.03067016,0 -0.04600525,0.0083313 -0.04600525,0.0249939 V 0.5 c 0,0.0166626 0.01533509,0.0249939 0.04600525,0.0249939 h 0.009995 c 0.0306702,0 0.0460053,-0.008331 0.0460053,-0.0249939 V 0.022995 c 0,-0.0166626 -0.0153351,-0.0249939 -0.0460053,-0.0249939 z" />
    <path
       id="font_2_340"
       d="m 0.1269989,-0.20700073 c -0.03067016,0 -0.04600525,0.008001 -0.04600525,0.0240021 V 0.3639984 c 0,0.0439962 -0.0019989,0.0759939 -0.0059967,0.0959931 -0.0039978,0.0200094 -0.0059967,0.0313466 -0.0059967,0.0340118 0,0.009328 0.0083313,0.0159912 0.02499389,0.019989 0.01667277,0.004008 0.03200786,0.006012 0.04600525,0.006012 0.01,0 0.017334,-0.004837 0.0220032,-0.0145111 0.004669,-0.009664 0.008169,-0.0196635 0.010498,-0.0299988 0.00233,-0.0103251 0.00383,-0.017156 0.004501,-0.0204925 0.0206604,0.023997 0.0438232,0.0424957 0.0694885,0.0554962 0.0256754,0.0130005 0.0528463,0.0195007 0.0815125,0.0195007 0.039327,0 0.0734914,-0.0111694 0.10249329,-0.0335083 0.0290019,-0.0223287 0.0511678,-0.0538279 0.0664978,-0.0944977 0.0153402,-0.0406596 0.0230103,-0.0876566 0.0230103,-0.1409912 0,-0.0840047 -0.0185039,-0.14967347 -0.0555115,-0.19700624 -0.0369975,-0.04733276 -0.0868276,-0.07099914 -0.14949035,-0.07099914 -0.0266724,0 -0.0503438,0.0039978 -0.0710144,0.0119934 -0.0206604,0.00800578 -0.0406545,0.01934306 -0.0599823,0.03401185 v -0.22200013 c 0,-0.0160014 -0.0153351,-0.0240021 -0.0460053,-0.0240021 H 0.1269989 m 0.16500856,0.28700256 c 0.0406596,0 0.0711568,0.01499939 0.0914917,0.04499817 0.0203349,0.0299988 0.0305023,0.0736643 0.0305023,0.1309967 0,0.0599976 -0.009333,0.1061605 -0.0279999,0.13848878 -0.0186666,0.0323385 -0.0460002,0.0485077 -0.0820007,0.0485077 -0.0213318,0 -0.042333,-0.005834 -0.0630035,-0.0175018 -0.0206604,-0.0116577 -0.0396576,-0.0278219 -0.0569916,-0.0484924 V 0.1170044 c 0.03066,-0.02466838 0.0666606,-0.03700257 0.10800172,-0.03700257 z" />
    <clipPath
       id="clip_3">
      <path
         transform="matrix(1,0,0,-1,0,792)"
         d="M 0,0 H 612 V 792 H 0 Z"
         id="path3" />
    </clipPath>
    <path
       id="font_4_156"
       d="m 0.31599427,-0.00700378 c -0.0506592,0 -0.0951589,0.00883483 -0.13349915,0.02650451 -0.0383301,0.01766968 -0.0678304,0.04250082 -0.08850098,0.07449341 -0.0206604,0.03200276 -0.0309906,0.06866964 -0.0309906,0.11000061 0,0.0113322 3.3061e-4,0.0196686 9.9182e-4,0.0250092 l 0.04499817,0.44799808 c 0.002004,0.0166626 0.0183411,0.0249939 0.0490112,0.0249939 h 0.0159912 c 0.0160014,0 0.0271657,-0.001999 0.0334931,-0.005997 0.006337,-0.003998 0.009506,-0.0103302 0.009506,-0.0189972 l -0.04599,-0.43800356 c -6.7139e-4,-0.004669 -0.001007,-0.0116679 -0.001007,-0.0209961 0,-0.0426636 0.0141652,-0.0754954 0.0424957,-0.0984955 0.0283406,-0.02300009 0.0658417,-0.03450012 0.11250306,-0.03450012 0.032664,0 0.0626627,0.0061646 0.0899963,0.01849365 0.0273336,0.0123291 0.0494995,0.0293274 0.0664978,0.0509949 0.0170085,0.0216675 0.0268453,0.046168 0.0295105,0.0735016 l 0.0469971,0.44900515 c 0.002004,0.0166626 0.018336,0.0249939 0.0489959,0.0249939 h 0.0160065 c 0.0160014,0 0.0269979,-0.001999 0.0329895,-0.005997 0.006002,-0.003998 0.009003,-0.0103302 0.009003,-0.0189972 L 0.6179962,0.227005 C 0.6106618,0.15299988 0.5804952,0.09549459 0.52749636,0.05448914 0.47449748,0.01349386 0.4039968,-0.00700378 0.31599427,-0.00700378 Z" />
    <path
       id="font_4_305"
       d="m 0.5119934,0.08399964 c 0.004669,0 0.007004,-0.0026652 0.007004,-0.0079956 0,-0.0073344 -0.001663,-0.02200317 -0.00499,-0.04400635 -0.002675,-0.01333618 -0.0111796,-0.02317301 -0.0255127,-0.0295105 -0.0143331,-0.00632731 -0.0284983,-0.00949096 -0.0424957,-0.00949096 -0.032664,0 -0.0573324,0.00866699 -0.0740051,0.02600097 -0.0166626,0.01733399 -0.0249939,0.04433696 -0.0249939,0.08100891 l 0.001999,0.0309906 0.001999,0.0250092 c 0.002004,0.0233256 0.004171,0.0461528 0.0065,0.0684814 0.002329,0.0223389 0.004496,0.0428416 0.0065,0.0615082 0.006002,0.0526733 0.009003,0.0816752 0.009003,0.0870056 0,0.0460002 -0.0233358,0.0690003 -0.0700073,0.0690003 -0.0246582,0 -0.0496572,-0.0105032 -0.0749969,-0.0315094 C 0.20266724,0.38949586 0.18166606,0.3559977 0.16499329,0.30999757 L 0.1349945,0.022995 C 0.13300069,0.0063324 0.1170044,-0.0019989 0.08700562,-0.0019989 H 0.07600403 c -0.01466878,0 -0.02567037,0.002329507 -0.03300476,0.00698852 C 0.03566488,0.00965881 0.03233337,0.01533 0.03300476,0.02200317 l 0.03498841,0.33699037 c 0.0046692,0.0526733 0.0070038,0.0826772 0.0070038,0.0900116 0,0.0119934 -1.6785e-4,0.0208231 -5.0354e-4,0.0264892 -3.2552e-4,0.005666 -4.8828e-4,0.0101675 -4.8828e-4,0.013504 0,0.01 0.0079956,0.0169983 0.02398681,0.0209961 0.01600139,0.004008 0.03233846,0.006012 0.04901124,0.006012 0.0186666,0 0.0279999,-0.0233358 0.0279999,-0.0700073 v -0.009995 c 0.0226644,0.03066 0.048996,0.0539907 0.0789948,0.069992 0.0299988,0.0160014 0.0606639,0.0240021 0.0919953,0.0240021 0.0453389,0 0.0786743,-0.0113322 0.10000611,-0.0339966 0.0213318,-0.0226644 0.0319977,-0.0546671 0.0319977,-0.0960083 -6.6124e-4,-0.0126648 -0.002329,-0.0314992 -0.005005,-0.0565033 -0.002665,-0.0249939 -0.00533,-0.0514882 -0.007996,-0.079483 -0.01,-0.0840047 -0.0149994,-0.13300579 -0.0149994,-0.14700318 0,-0.0160014 0.003001,-0.02633667 0.009003,-0.03100586 0.006002,-0.0046692 0.0143331,-0.0070038 0.0249939,-0.0070038 0.005341,0 0.0108439,8.3415e-4 0.01651,0.0025024 0.005666,0.0016683 0.009496,0.0025025 0.0114898,0.0025025 z" />
    <path
       id="font_4_277"
       d="m 0.15400696,0.6080017 c -0.0186666,0 -0.0318349,0.002167 -0.039505,0.0065 -0.00767,0.004333 -0.0115051,0.0111643 -0.0115051,0.0204925 l 0.007004,0.0600128 c 0.002004,0.0186666 0.0216726,0.0279999 0.0590057,0.0279999 0.0179952,0 0.0308228,-0.002335 0.0384827,-0.007004 0.00767,-0.004669 0.0115051,-0.0116679 0.0115051,-0.0209961 L 0.21299744,0.6349945 C 0.20899964,0.6169993 0.18933614,0.6080017 0.15400696,0.6080017 m -0.003006,-0.61500548 c -0.06533814,0 -0.0980072,0.03500366 -0.0980072,0.10501098 0,0.0126648 0.0026703,0.04466248 0.0080109,0.09599305 0.004659,0.0513306 0.01015726,0.10749308 0.01649475,0.16848755 0.0063375,0.0610046 0.01150513,0.10684204 0.01550293,0.1375122 0.0019938,0.0166626 0.0179952,0.0249939 0.04800415,0.0249939 h 0.0109863 c 0.0293376,0 0.0440064,-0.008331 0.0440064,-0.0249939 C 0.19200135,0.46266685 0.1844991,0.3919983 0.17349243,0.28799439 0.16249593,0.18400066 0.15699768,0.12700399 0.15699768,0.1170044 c 0,-0.0160014 0.002833,-0.02633667 0.008499,-0.03100586 0.005666,-0.0046692 0.0138346,-0.0070038 0.0245056,-0.0070038 0.00533,0 0.0106608,8.3415e-4 0.0159912,0.0025024 0.005341,0.0016683 0.009343,0.0025025 0.0120087,0.0025025 0.003998,0 0.005997,-0.0026652 0.005997,-0.0079956 0,-0.01200358 -0.001333,-0.02667236 -0.003998,-0.04400635 -0.002665,-0.01333618 -0.0111643,-0.02317301 -0.0254974,-0.0295105 -0.0143331,-0.00632731 -0.028834,-0.00949096 -0.0435028,-0.00949096 z" />
    <path
       id="font_4_382"
       d="m 0.19099427,-0.0019989 c -0.026001,0 -0.0403341,0.0056661 -0.0429993,0.01699829 L 0.03799439,0.4940033 c -0.0013326,0.00533 -0.0019989,0.009328 -0.0019989,0.0119934 0,0.0126648 0.01666769,0.0189972 0.05000306,0.0189972 h 0.01499939 c 0.026001,0 0.0406697,-0.005666 0.0440063,-0.0169983 l 0.0529938,-0.2409973 0.0130005,-0.0650025 c 0.003337,-0.0186666 0.008006,-0.042333 0.0140076,-0.0709992 h 0.00499 c 0.0213318,0.0606689 0.0386658,0.10600281 0.052002,0.1360016 L 0.3860016,0.5079956 c 0.00533,0.0113322 0.0206655,0.0169983 0.0460053,0.0169983 h 0.007996 c 0.03066,0 0.04599,-0.005666 0.04599,-0.0169983 0,-0.00533 -0.001333,-0.0109965 -0.003998,-0.0169983 L 0.2709961,0.01499939 C 0.26566569,0.0036672 0.2503357,-0.0019989 0.2250061,-0.0019989 Z" />
    <path
       id="font_4_248"
       d="m 0.23899842,0.21000672 c -0.0339966,0 -0.0643311,0.00233 -0.0910034,0.006989 v -0.002991 c 0,-0.049998 0.0113322,-0.0850016 0.0339966,-0.10501099 0.0226746,-0.01999918 0.0560099,-0.02999878 0.10000611,-0.02999878 0.0273336,0 0.0513306,0.0036672 0.071991,0.01100159 0.0206705,0.0073344 0.0410054,0.01633707 0.0610046,0.02700806 0.002675,0.001333 0.00651,0.003164 0.0115051,0.005493 0.005005,0.00234 0.008504,0.00351 0.0104981,0.00351 0.002665,0 0.004496,-6.7138e-4 0.005493,-0.002014 0.001007,-0.001333 0.001511,-0.004995 0.001511,-0.0109863 0,-0.004669 -5.0355e-4,-0.0126699 -0.001511,-0.02400207 C 0.4414927,0.07767233 0.43999736,0.06767273 0.43800355,0.05900574 0.43333436,0.03700257 0.41233317,0.02049764 0.375,0.00949097 c -0.0373331,-0.0109965 -0.0720011,-0.01649475 -0.1040039,-0.01649475 -0.067332,0 -0.12232972,0.01600138 -0.16499329,0.04800415 -0.04266358,0.03200277 -0.06399536,0.08633423 -0.06399536,0.16299438 0,0.10000611 0.02366638,0.17934165 0.07099914,0.2380066 0.0473328,0.0586649 0.11533101,0.0879974 0.20399476,0.0879974 0.0420023,0 0.0761668,-0.007334 0.10249329,-0.0220032 0.0263367,-0.0146688 0.0451711,-0.0325012 0.0565033,-0.0534973 0.0113322,-0.0209961 0.0169983,-0.0414937 0.0169983,-0.0614929 0,-0.0633341 -0.0245005,-0.10967001 -0.0735016,-0.13900758 -0.0490011,-0.0293274 -0.10916647,-0.0439911 -0.18049622,-0.0439911 m 0.0690002,0.23399353 c -0.0466614,0 -0.0823263,-0.0140025 -0.10699464,-0.0420075 -0.0246684,-0.0279948 -0.0406698,-0.065328 -0.0480041,-0.1119995 h 0.0639954 c 0.0399984,0 0.0786642,0.0065 0.11599732,0.0195007 0.0373433,0.0130005 0.056015,0.0371704 0.056015,0.0725098 0,0.0186666 -0.007172,0.033666 -0.0215149,0.0449982 -0.0143331,0.0113322 -0.0341644,0.0169983 -0.059494,0.0169983 z" />
    <path
       id="font_4_343"
       d="m 0.32200624,0.5299988 c 0.0139974,0 0.0256602,-0.003667 0.0349884,-0.0110016 0.009338,-0.007334 0.0140076,-0.017334 0.0140076,-0.0299988 0,-0.0133362 -0.003835,-0.0278371 -0.0115051,-0.0435028 -0.00766,-0.0156657 -0.0144907,-0.0234985 -0.0204925,-0.0234985 -0.002004,0 -0.006505,0.001831 -0.013504,0.005493 -0.006999,0.003672 -0.0158335,0.005508 -0.0265045,0.005508 -0.0233256,0 -0.0451558,-0.0111694 -0.0654907,-0.0335083 -0.0203349,-0.0223287 -0.0368347,-0.0534922 -0.0494995,-0.0934906 L 0.15400696,0.022995 C 0.15200298,0.0063324 0.13600159,-0.0019989 0.10600281,-0.0019989 H 0.09500122 c -0.0139974,0 -0.02466329,0.002329507 -0.03199768,0.00698852 C 0.05566915,0.00965881 0.05200195,0.01533 0.05200195,0.02200317 l 0.03700257,0.34599306 c 0.0033264,0.0333354 0.0049896,0.0603383 0.0049896,0.0810089 l -9.9182e-4,0.0399933 c 0,0.01 0.0080007,0.0169983 0.02400208,0.0209961 0.0160014,0.004008 0.0323334,0.006012 0.048996,0.006012 0.019338,0 0.029007,-0.019338 0.029007,-0.0580139 0,-0.007996 -3.357e-4,-0.0139923 -0.001007,-0.0179901 0.0160014,0.0273336 0.0349986,0.0491638 0.0569916,0.0654907 0.0220032,0.0163371 0.0456746,0.0245056 0.0710144,0.0245056 z" />
    <path
       id="font_4_348"
       d="m 0.16700745,-0.00700378 c -0.0306702,0 -0.0618388,0.00483195 -0.09350586,0.01449585 -0.03166707,0.00967407 -0.04750061,0.02751159 -0.04750061,0.05351257 0,0.01733398 0.0018311,0.03083292 0.0054932,0.04049683 0.0036723,0.009664 0.0075073,0.0144959 0.01150513,0.0144959 0.002004,0 0.0091705,-0.003499 0.02149963,-0.010498 0.0123291,-0.0069987 0.02649435,-0.01316834 0.04249573,-0.01850891 0.0160014,-0.0053304 0.0336711,-0.0079956 0.053009,-0.0079956 0.0286662,0 0.0516663,0.0063324 0.0690002,0.01899719 0.017334,0.01267497 0.026001,0.03067525 0.026001,0.05400086 0,0.0206706 -0.007004,0.0358378 -0.0210114,0.0455017 -0.0139974,0.009674 -0.0363261,0.0201772 -0.0669861,0.0315094 -0.0360006,0.013326 -0.064504,0.029658 -0.08551026,0.048996 -0.02099609,0.019338 -0.03149414,0.0490061 -0.03149414,0.0890045 0,0.0513306 0.01749675,0.0913289 0.05249024,0.1199951 0.0350037,0.0286662 0.0788371,0.0429993 0.13150024,0.0429993 0.0320028,0 0.0621694,-0.004333 0.0904999,-0.0130005 0.0283407,-0.008667 0.042511,-0.0213318 0.042511,-0.0379944 0,-0.009338 -0.005,-0.0211741 -0.0149994,-0.0355072 -0.01,-0.0143331 -0.0183359,-0.0214996 -0.0250091,-0.0214996 -0.001994,0 -0.00766,0.002167 -0.0169983,0.0065 -0.009328,0.004333 -0.0194956,0.008169 -0.0305023,0.0115051 -0.0109965,0.003337 -0.0244954,0.005005 -0.0404968,0.005005 -0.026001,0 -0.0463359,-0.005168 -0.0610046,-0.0155029 -0.0146586,-0.0103353 -0.0219879,-0.0248362 -0.0219879,-0.0435028 0,-0.0213318 0.007497,-0.0373332 0.0224915,-0.0480042 0.0150045,-0.0106608 0.0375061,-0.021993 0.0675049,-0.0339966 0.023997,-0.009338 0.0438284,-0.0186768 0.059494,-0.0280151 0.0156657,-0.009328 0.0288289,-0.0224915 0.0394897,-0.0394898 0.010671,-0.0169983 0.0160065,-0.0388285 0.0160065,-0.0654907 0,-0.034668 -0.008169,-0.065506 -0.0245056,-0.09251404 C 0.3201599,0.05149333 0.29732768,0.03049215 0.2679901,0.01548767 0.23866272,4.933675e-4 0.20500183,-0.00700378 0.16700745,-0.00700378 Z" />
    <path
       id="font_4_241"
       d="m 0.53700259,0.08399964 c 0.004669,0 0.007004,-0.0026652 0.007004,-0.0079956 0,-0.01200358 -0.001668,-0.02667236 -0.005005,-0.04400635 -0.002004,-0.01333618 -0.0101726,-0.02317301 -0.0245056,-0.0295105 -0.0143331,-0.00632731 -0.028834,-0.00949096 -0.0435028,-0.00949096 -0.0619914,0 -0.0949911,0.03233337 -0.098999,0.09700012 C 0.3539988,0.05800374 0.3318329,0.03383891 0.30549623,0.01750183 0.2791697,0.00116475 0.2506714,-0.00700378 0.22000122,-0.00700378 c -0.0299988,0 -0.0590006,0.00699869374 -0.0870056,0.02099609 C 0.10500082,0.02799988 0.08200073,0.05133565 0.06399536,0.08399964 0.04600017,0.11666361 0.03700257,0.15866597 0.03700257,0.21000672 c 0,0.0619914 0.01016743,0.11715188 0.03050231,0.16548157 0.02033488,0.0483398 0.04900106,0.0861766 0.08599854,0.11351011 0.0369975,0.0273336 0.0798289,0.0410004 0.12849427,0.0410004 0.0486654,0 0.091334,-0.0146688 0.12800598,-0.0440064 l 0.026001,0.24200436 c 0.001994,0.0166728 0.0179901,0.0250092 0.0479889,0.0250092 h 0.0110016 c 0.0293376,0 0.0440064,-0.008336 0.0440064,-0.0250092 C 0.53233847,0.6666667 0.5201721,0.55200198 0.50250247,0.3840027 0.48483277,0.21600342 0.47599793,0.12700399 0.47599793,0.1170044 c 0,-0.0160014 0.002833,-0.02633667 0.008499,-0.03100586 0.005666,-0.0046692 0.0141652,-0.0070038 0.0254974,-0.0070038 0.004669,0 0.009669,8.3415e-4 0.0149994,0.0025024 0.005341,0.0016683 0.009343,0.0025025 0.0120087,0.0025025 M 0.4019928,0.41000367 c -0.0286662,0.0226644 -0.0623321,0.0339966 -0.10099792,0.0339966 -0.0559998,0 -0.0963338,-0.0208333 -0.1210022,-0.0625 -0.0246582,-0.0416666 -0.0369873,-0.0965017 -0.0369873,-0.16450501 0,-0.0486654 0.00883,-0.0836639 0.0264893,-0.10499573 C 0.1871643,0.09066773 0.21399944,0.08000183 0.25,0.08000183 c 0.0233358,0 0.0470022,0.01083374 0.0709992,0.03250122 0.023997,0.0216675 0.0443319,0.0561676 0.0610046,0.10350037 z" />
    <path
       id="font_4_209"
       d="m 0.5149994,0.08399964 c 0.003998,0 0.005997,-0.0026652 0.005997,-0.0079956 0,-0.01200358 -0.001663,-0.02667236 -0.00499,-0.04400635 -0.002004,-0.01333618 -0.0101726,-0.02317301 -0.0245056,-0.0295105 -0.0143331,-0.00632731 -0.028834,-0.00949096 -0.0435028,-0.00949096 -0.0626628,0 -0.0953268,0.03233337 -0.097992,0.09700012 -0.017334,-0.0319926 -0.0390014,-0.05615743 -0.0650024,-0.07249451 -0.026001,-0.01633708 -0.0540009,-0.02450561 -0.0839996,-0.02450561 -0.0273336,0 -0.0535024,0.00699869374 -0.0785065,0.02099609 -0.0249939,0.01400757 -0.04582723,0.0371755 -0.0625,0.06950379 -0.0166626,0.03233846 -0.0249939,0.07417297 -0.0249939,0.12550354 0,0.0620016 0.0099996,0.117335 0.02999878,0.16600036 0.01999919,0.0486654 0.04799906,0.086497 0.08399964,0.11349488 0.0360006,0.027008 0.0776672,0.0405121 0.12500001,0.0405121 0.0446676,0 0.0863342,-0.0176697 0.125,-0.0530091 0.006002,0.0180054 0.0119985,0.0305074 0.0179901,0.0375061 0.006002,0.006999 0.0170034,0.0108287 0.0330048,0.0114899 h 0.007004 c 0.0233358,0 0.0350037,-0.007329 0.0350037,-0.0219879 L 0.4869995,0.45599366 C 0.48033653,0.39466349 0.4730021,0.32499696 0.46499635,0.24699402 0.45700074,0.16900127 0.45300294,0.12567139 0.45300294,0.1170044 c 0,-0.0160014 0.002996,-0.02633667 0.008987,-0.03100586 0.006002,-0.0046692 0.0143382,-0.0070038 0.0250091,-0.0070038 0.00533,0 0.0106608,8.3415e-4 0.0159912,0.0025024 0.005341,0.0016683 0.009343,0.0025025 0.0120087,0.0025025 M 0.3730011,0.3500061 c 6.6123e-4,0.007996 0.003662,0.0273285 0.009003,0.0579987 -0.028005,0.0233256 -0.0590057,0.0349884 -0.0930023,0.0349884 -0.0533345,0 -0.091334,-0.0206655 -0.11399842,-0.0619965 -0.0226644,-0.041331 -0.0339966,-0.0963287 -0.0339966,-0.16499328 0,-0.0906677 0.0299988,-0.13600159 0.0899963,-0.13600159 0.0226644,0 0.0458272,0.0109965 0.0694885,0.0329895 0.0236715,0.0220032 0.0435079,0.0566712 0.0595093,0.10400391 z" />
    <path
       id="font_4_2"
       d="M 0,0 Z" />
    <path
       id="font_4_97"
       d="m 0.3869934,0.18699646 c -0.0113322,0 -0.0196635,0.005 -0.0249939,0.0149994 L 0.22799683,0.4889984 c -0.007996,0.017334 -0.0136617,0.0306702 -0.0169983,0.0400086 l -0.003998,-0.001007 c 0,-0.0113322 -0.001333,-0.0276642 -0.003998,-0.048996 L 0.15499878,0.022995 C 0.1529948,0.0063324 0.13699341,-0.0019989 0.10699463,-0.0019989 H 0.09399414 C 0.07800293,-0.0019989 0.06667074,0 0.05999756,0.0039978 0.05333455,0.00799561 0.05000305,0.014328 0.05000305,0.022995 L 0.1190033,0.67700198 c 0.001333,0.0166626 0.017334,0.0249939 0.0480041,0.0249939 h 0.0409851 c 0.0246684,0 0.0403392,-0.006999 0.0470123,-0.0209961 L 0.40100099,0.3670044 c 0.008667,-0.0180054 0.0146688,-0.0360056 0.0180054,-0.0540008 0.007324,0.0146688 0.0169881,0.0313364 0.0289917,0.050003 l 0.21400453,0.31799318 c 0.009328,0.0139974 0.0259959,0.0209961 0.050003,0.0209961 H 0.75 c 0.0160014,0 0.0273336,-0.001999 0.0339966,-0.005997 0.006673,-0.003998 0.0100098,-0.0103302 0.0100098,-0.0189972 L 0.7250061,0.022995 C 0.72300216,0.0063324 0.70700076,-0.0019989 0.67700198,-0.0019989 H 0.66400149 C 0.64800009,-0.0019989 0.6366628,0 0.6299896,0.0039978 0.6233266,0.00799561 0.6199951,0.014328 0.6199951,0.022995 l 0.0470124,0.44700623 0.005997,0.052002 -0.003998,0.001999 C 0.66100057,0.5106659 0.6536662,0.49899803 0.6470032,0.4889984 L 0.45300294,0.20199585 c -0.007334,-0.01 -0.0170034,-0.0149994 -0.029007,-0.0149994 z" />
    <path
       id="font_4_268"
       d="m 0.47099305,0.5249939 c 0.0233358,0 0.0350036,-0.007329 0.0350036,-0.0219879 L 0.46299745,0.09700012 c -0.007996,-0.07533773 -0.021993,-0.13567098 -0.0419922,-0.18099976 -0.0199992,-0.04532878 -0.0466665,-0.07799275 -0.0800018,-0.09799194 -0.0333354,-0.0200094 -0.075002,-0.030014 -0.12500001,-0.030014 -0.032664,0 -0.0625,0.003504 -0.0895081,0.0105133 -0.02699788,0.006999 -0.04816691,0.0159963 -0.06350708,0.0269928 -0.01532999,0.0109965 -0.02299499,0.0221608 -0.02299499,0.033493 0,0.04267374 0.0053355,0.06401062 0.01600647,0.06401062 0.002004,0 0.01017252,-0.0046641 0.02450561,-0.01399231 0.01433309,-0.0093384 0.03199768,-0.01767477 0.05299378,-0.02500916 0.0209961,-0.007334 0.0454966,-0.0110016 0.0735016,-0.0110016 0.0466614,0 0.0824941,0.0175018 0.10749817,0.05250549 0.0250041,0.03499349 0.0405019,0.09115601 0.0464935,0.16848755 C 0.34232585,0.06333415 0.3201599,0.04017131 0.29449464,0.02450562 0.26882936,0.00883993 0.24099732,0.00100708 0.21099854,0.00100708 c -0.0286662,0 -0.0559998,0.00683085 -0.0820007,0.02049255 C 0.10299683,0.03517151 0.08149719,0.05767314 0.0644989,0.08900452 0.04750061,0.1203359 0.03900147,0.16100057 0.03900147,0.21099854 c 0,0.0620016 0.01016743,0.11716715 0.03050232,0.16549683 0.02033487,0.0483398 0.04900106,0.0860087 0.08599853,0.11300659 0.0369975,0.0269978 0.0798289,0.0404968 0.12849427,0.0404968 0.0473328,0 0.0900014,-0.0180003 0.12800598,-0.0540009 0.006663,0.0186666 0.0129954,0.0314992 0.0189972,0.0384979 0.006002,0.006999 0.0166677,0.010498 0.0319977,0.010498 h 0.007996 M 0.3860016,0.3480072 c 0.003337,0.0253296 0.006668,0.0456594 0.009995,0.0609894 -0.0146688,0.01 -0.0295054,0.0183309 -0.0445099,0.0249939 -0.0149943,0.006673 -0.032491,0.0100098 -0.0524902,0.0100098 -0.0553284,0 -0.0949962,-0.0208333 -0.1190033,-0.0625 -0.023997,-0.0416666 -0.0359955,-0.096166 -0.0359955,-0.16349793 0,-0.0866699 0.0323334,-0.13000488 0.0970001,-0.13000488 0.0233358,0 0.04717,0.01100158 0.0715027,0.03300476 0.0243327,0.0220032 0.0444997,0.0570017 0.0605011,0.10499573 z" />
    <path
       id="font_4_297"
       d="m 0.16299439,-0.00700378 c -0.032664,0 -0.0573324,0.00849914 -0.07400513,0.02549743 -0.0166626,0.01700847 -0.0249939,0.04184469 -0.0249939,0.07450867 0,0.01066081 3.357e-4,0.0189921 0.0010071,0.0249939 L 0.12800598,0.7290039 c 6.6121e-4,0.008667 0.004659,0.0148316 0.0119934,0.0184937 0.007334,0.003672 0.018336,0.005508 0.0330048,0.005508 h 0.0169983 c 0.0166626,0 0.027827,-0.002335 0.0334931,-0.007004 0.005666,-0.004669 0.007833,-0.0126698 0.0065,-0.0240021 L 0.16700745,0.13200379 c -6.7139e-4,-0.004669 -0.001007,-0.010671 -0.001007,-0.0180054 0,-0.0126648 0.002497,-0.02166748 0.007492,-0.02700805 0.005005,-0.0053304 0.0141754,-0.0079956 0.0275116,-0.0079956 0.00533,0 0.0108287,8.3415e-4 0.0164948,0.0025024 0.005666,0.0016683 0.009501,0.0025025 0.0115051,0.0025025 0.004659,0 0.006989,-0.0026652 0.006989,-0.0079956 0,-0.0073344 -0.001663,-0.02200317 -0.00499,-0.04400635 -0.002665,-0.01333618 -0.0111643,-0.02317301 -0.0254974,-0.0295105 -0.0143331,-0.00632731 -0.0285034,-0.00949096 -0.042511,-0.00949096 z" />
  </defs>
  <g
     clip-path="url(#clip_3)"
     id="g17"
     transform="translate(-135.55598,-331.8797)">
    <path
       transform="matrix(1,0,0,-1,456.4893,421.6917)"
       d="m 0,0 c 3.274,0.252 6.506,0.713 9.698,1.385 3.192,0.672 5.877,1.657 8.062,2.961 2.182,1.301 3.275,3.042 3.275,5.228 v 35.018 c 0,3.356 -1.681,5.037 -5.039,5.037 h -25.57 c -2.519,0 -3.778,-2.1 -3.778,-6.298 v -4.03 c 0,-4.201 1.259,-6.298 3.778,-6.298 H 1.511 V 9.699 l 5.543,8.565 c -3.108,-0.756 -5.776,-1.302 -7.999,-1.638 -2.226,-0.335 -4.683,-0.503 -7.37,-0.503 -3.611,0 -6.76,0.608 -9.446,1.827 -2.689,1.215 -4.935,3.022 -6.74,5.416 -1.807,2.394 -3.148,5.394 -4.03,9.007 -0.882,3.609 -1.323,7.766 -1.323,12.47 0,6.298 0.775,11.545 2.33,15.745 1.553,4.199 3.947,7.347 7.18,9.448 3.233,2.097 7.326,3.148 12.282,3.148 4.03,0 7.369,-0.335 10.014,-1.008 2.645,-0.672 4.702,-1.344 6.173,-2.015 1.467,-0.673 2.455,-1.007 2.959,-1.007 1.09,0 2.268,0.733 3.527,2.204 1.259,1.468 2.351,3.149 3.276,5.039 0.922,1.889 1.385,3.421 1.385,4.597 0,1.343 -0.863,2.539 -2.583,3.59 -1.721,1.05 -3.967,1.972 -6.738,2.771 -2.771,0.798 -5.713,1.406 -8.818,1.827 -3.108,0.419 -6.046,0.63 -8.817,0.63 -13.941,0 -24.437,-3.716 -31.491,-11.149 -7.054,-7.431 -10.581,-18.664 -10.581,-33.694 0,-15.537 3.38,-26.979 10.141,-34.325 6.757,-7.349 17.193,-11.023 31.3,-11.023 2.268,0 5.039,0.128 8.315,0.379 m -97.495,57.439 c 0.503,1.342 0.882,2.686 1.133,4.03 0.252,1.343 0.505,2.688 0.756,4.032 h 0.505 c 0.251,-1.344 0.522,-2.689 0.817,-4.032 0.294,-1.344 0.65,-2.688 1.072,-4.03 l 7.18,-22.421 h -18.894 z m -23.68,-57.062 c 1.51,0 2.771,0.211 3.778,0.631 1.008,0.419 1.678,1.089 2.015,2.015 l 5.039,15.367 h 29.728 l 5.037,-15.367 c 0.336,-1.008 1.135,-1.701 2.394,-2.078 1.259,-0.378 2.813,-0.568 4.66,-0.568 h 5.542 c 4.2,0 6.299,0.924 6.299,2.771 0,0.673 -0.126,1.429 -0.378,2.268 l -27.712,80.995 c -0.588,1.763 -2.982,2.645 -7.18,2.645 h -6.549 c -4.116,0 -6.51,-0.882 -7.18,-2.645 L -133.394,5.416 c -0.086,-0.42 -0.189,-0.818 -0.315,-1.196 -0.127,-0.379 -0.19,-0.736 -0.19,-1.072 0,-1.847 2.562,-2.771 7.684,-2.771 z m -65.248,21.289 c 2.182,0 3.861,0.796 5.039,2.393 l 15.493,27.711 c 0.503,0.84 0.986,1.657 1.447,2.457 0.462,0.798 0.903,1.617 1.324,2.456 l 0.503,-0.125 V 53.534 50.385 4.409 c 0,-2.689 2.519,-4.032 7.559,-4.032 h 3.652 c 5.04,0 7.558,1.343 7.558,4.032 v 80.617 c 0,2.686 -2.518,4.03 -7.558,4.03 h -6.549 c -1.849,0 -3.464,-0.252 -4.851,-0.756 -1.385,-0.503 -2.415,-1.385 -3.085,-2.645 L -187.179,48.37 c -0.17,-0.337 -0.358,-0.674 -0.566,-1.007 -0.211,-0.337 -0.4,-0.716 -0.568,-1.135 -0.169,0.419 -0.378,0.798 -0.63,1.135 -0.251,0.333 -0.463,0.67 -0.63,1.007 l -20.91,37.285 c -0.672,1.26 -1.7,2.142 -3.085,2.645 -1.386,0.504 -3.003,0.756 -4.851,0.756 h -6.675 c -5.039,0 -7.557,-1.344 -7.557,-4.03 V 4.409 c 0,-2.689 2.518,-4.032 7.557,-4.032 h 3.653 c 5.039,0 7.557,1.343 7.557,4.032 v 45.976 3.149 3.024 l 0.504,0.125 c 0.42,-0.839 0.861,-1.658 1.322,-2.456 0.461,-0.8 0.946,-1.617 1.449,-2.457 l 15.494,-27.711 c 1.175,-1.597 2.855,-2.393 5.039,-2.393 z"
       fill="#593d7f"
       id="path16" />
    <path
       transform="matrix(1,0,0,-1,199.7149,414.0702)"
       d="m 0,0 c 6.425,5.333 9.637,12.828 9.637,22.487 v 54.926 c 0,2.686 -2.52,4.03 -7.559,4.03 h -4.156 c -5.039,0 -7.559,-1.344 -7.559,-4.03 V 23.746 c 0,-2.94 -0.736,-5.564 -2.205,-7.873 -1.47,-2.311 -3.486,-4.117 -6.046,-5.418 -2.563,-1.302 -5.565,-1.952 -9.008,-1.952 -3.36,0 -6.342,0.65 -8.944,1.952 -2.605,1.301 -4.62,3.107 -6.048,5.418 -1.428,2.309 -2.141,4.933 -2.141,7.873 v 53.667 c 0,2.686 -2.519,4.03 -7.558,4.03 h -4.283 c -5.04,0 -7.559,-1.344 -7.559,-4.03 V 22.487 c 0,-9.659 3.213,-17.154 9.636,-22.487 6.426,-5.334 15.39,-7.999 26.897,-7.999 11.505,0 20.471,2.665 26.896,7.999"
       fill="#4a5cab"
       id="path17" />
  </g>
  <use
     data-text="U"
     xlink:href="#font_4_156"
     transform="matrix(27.6759,0,0,-27.6759,-1.7436797,125.8976)"
     fill="#593d7f"
     id="use17" />
  <use
     data-text="n"
     xlink:href="#font_4_305"
     transform="matrix(27.6759,0,0,-27.6759,18.51508,125.8976)"
     fill="#593d7f"
     id="use18" />
  <use
     data-text="i"
     xlink:href="#font_4_277"
     transform="matrix(27.6759,0,0,-27.6759,34.48408,125.8976)"
     fill="#593d7f"
     id="use19" />
  <use
     data-text="v"
     xlink:href="#font_4_382"
     transform="matrix(27.6759,0,0,-27.6759,42.37171,125.8976)"
     fill="#593d7f"
     id="use20" />
  <use
     data-text="e"
     xlink:href="#font_4_248"
     transform="matrix(27.6759,0,0,-27.6759,56.34804,125.8976)"
     fill="#593d7f"
     id="use21" />
  <use
     data-text="r"
     xlink:href="#font_4_343"
     transform="matrix(27.6759,0,0,-27.6759,71.81887,125.8976)"
     fill="#593d7f"
     id="use22" />
  <use
     data-text="s"
     xlink:href="#font_4_348"
     transform="matrix(27.6759,0,0,-27.6759,82.50176,125.8976)"
     fill="#593d7f"
     id="use23" />
  <use
     data-text="i"
     xlink:href="#font_4_277"
     transform="matrix(27.6759,0,0,-27.6759,94.48543,125.8976)"
     fill="#593d7f"
     id="use24" />
  <use
     data-text="d"
     xlink:href="#font_4_241"
     transform="matrix(27.6759,0,0,-27.6759,102.37307,125.8976)"
     fill="#593d7f"
     id="use25" />
  <use
     data-text="a"
     xlink:href="#font_4_209"
     transform="matrix(27.6759,0,0,-27.6759,118.56347,125.8976)"
     fill="#593d7f"
     id="use26" />
  <use
     data-text="d"
     xlink:href="#font_4_241"
     transform="matrix(27.6759,0,0,-27.6759,134.20035,125.8976)"
     fill="#593d7f"
     id="use27" />
  <use
     data-text=" "
     xlink:href="#font_4_2"
     transform="matrix(27.6759,0,0,-27.6759,150.39075,125.8976)"
     fill="#593d7f"
     id="use28" />
  <use
     data-text="d"
     xlink:href="#font_4_241"
     transform="matrix(27.6759,0,0,-27.6759,157.25436,125.8976)"
     fill="#593d7f"
     id="use29" />
  <use
     data-text="e"
     xlink:href="#font_4_248"
     transform="matrix(27.6759,0,0,-27.6759,173.44476,125.8976)"
     fill="#593d7f"
     id="use30" />
  <use
     data-text=" "
     xlink:href="#font_4_2"
     transform="matrix(27.6759,0,0,-27.6759,188.91559,125.8976)"
     fill="#593d7f"
     id="use31" />
  <use
     data-text="M"
     xlink:href="#font_4_97"
     transform="matrix(27.6759,0,0,-27.6759,195.7792,125.8976)"
     fill="#593d7f"
     id="use32" />
  <use
     data-text="a"
     xlink:href="#font_4_209"
     transform="matrix(27.6759,0,0,-27.6759,219.66351,125.8976)"
     fill="#593d7f"
     id="use33" />
  <use
     data-text="g"
     xlink:href="#font_4_268"
     transform="matrix(27.6759,0,0,-27.6759,235.30038,125.8976)"
     fill="#593d7f"
     id="use34" />
  <use
     data-text="a"
     xlink:href="#font_4_209"
     transform="matrix(27.6759,0,0,-27.6759,250.96492,125.8976)"
     fill="#593d7f"
     id="use35" />
  <use
     data-text="l"
     xlink:href="#font_4_297"
     transform="matrix(27.6759,0,0,-27.6759,266.60181,125.8976)"
     fill="#593d7f"
     id="use36" />
  <use
     data-text="l"
     xlink:href="#font_4_297"
     transform="matrix(27.6759,0,0,-27.6759,275.37506,125.8976)"
     fill="#593d7f"
     id="use37" />
  <use
     data-text="a"
     xlink:href="#font_4_209"
     transform="matrix(27.6759,0,0,-27.6759,284.14831,125.8976)"
     fill="#593d7f"
     id="use38" />
  <use
     data-text="n"
     xlink:href="#font_4_305"
     transform="matrix(27.6759,0,0,-27.6759,299.78519,125.8976)"
     fill="#593d7f"
     id="use39" />
  <use
     data-text="e"
     xlink:href="#font_4_248"
     transform="matrix(27.6759,0,0,-27.6759,315.75418,125.8976)"
     fill="#593d7f"
     id="use40" />
  <use
     data-text="s"
     xlink:href="#font_4_348"
     transform="matrix(27.6759,0,0,-27.6759,331.22501,125.8976)"
     fill="#593d7f"
     id="use41" />
</svg>
