<?xml version="1.0" encoding="UTF-8" standalone="no"?>
<svg
   version="1.1"
   width="361.61371"
   height="89.778999"
   viewBox="0 0 361.6137 89.779002"
   id="svg15"
   sodipodi:docname="logo_inach.svg"
   inkscape:version="1.3.2 (091e20ef0f, 2023-11-25)"
   xmlns:inkscape="http://www.inkscape.org/namespaces/inkscape"
   xmlns:sodipodi="http://sodipodi.sourceforge.net/DTD/sodipodi-0.dtd"
   xmlns="http://www.w3.org/2000/svg"
   xmlns:svg="http://www.w3.org/2000/svg">
  <sodipodi:namedview
     id="namedview15"
     pagecolor="#ffffff"
     bordercolor="#000000"
     borderopacity="0.25"
     inkscape:showpageshadow="2"
     inkscape:pageopacity="0.0"
     inkscape:pagecheckerboard="0"
     inkscape:deskcolor="#d1d1d1"
     inkscape:zoom="6.2534706"
     inkscape:cx="184.45757"
     inkscape:cy="34.940598"
     inkscape:window-width="3840"
     inkscape:window-height="2083"
     inkscape:window-x="0"
     inkscape:window-y="0"
     inkscape:window-maximized="1"
     inkscape:current-layer="svg15" />
  <defs
     id="defs1">
    <clipPath
       id="clip_2">
      <path
         transform="matrix(1,0,0,-1,0,187.706)"
         d="M 0,187.706 H 489.808 V 0 H 0 Z"
         id="path1" />
    </clipPath>
  </defs>
  <path
     d="m 110.3119,69.0134 h 9.241 V 12.26839 h -9.241 z"
     fill="#010101"
     id="path2" />
  <path
     d="m 178.324,50.1258 -37.128,-37.857 h -4.215 v 56.745 h 9.242 v -37.938 l 37.127,37.938 h 4.215 v -56.745 h -9.241 z"
     fill="#010101"
     id="path3" />
  <g
     clip-path="url(#clip_2)"
     id="g15"
     transform="translate(-60.4101,-58.8896)">
    <path
       transform="matrix(1,0,0,-1,322.8009,99.53089)"
       d="m 0,0 c 0,11.916 8.106,20.185 20.185,20.185 6.809,0 12.808,-2.594 15.97,-5.593 V 24.806 C 32.426,27.319 26.589,29.183 19.78,29.183 2.594,29.183 -9.485,17.105 -9.485,0 c 0,-17.105 12.079,-29.183 29.346,-29.183 7.215,0 13.213,2.107 16.699,4.377 v 10.214 C 33.236,-17.753 26.994,-20.185 20.266,-20.185 8.106,-20.185 0,-11.916 0,0"
       fill="#010101"
       id="path4" />
    <path
       transform="matrix(1,0,0,-1,412.7828,71.158298)"
       d="M 0,0 V -23.752 H -30.642 V 0 h -9.242 v -56.745 h 9.242 v 24.481 H 0 V -56.745 H 9.241 V 0 Z"
       fill="#010101"
       id="path5" />
    <path
       transform="matrix(1,0,0,-1,280.6458,71.158397)"
       d="m 0,0 -24.481,-56.745 h 9.697 L 1.945,-17.139 18.81,-56.745 h 9.887 L 4.215,0 Z"
       fill="#010101"
       id="path6" />
    <path
       transform="matrix(1,0,0,-1,134.1271,132.6066)"
       d="m 0,0 c -7.7,-7.7 -17.938,-11.941 -28.828,-11.941 -10.89,0 -21.128,4.241 -28.828,11.941 -7.7,7.7 -11.941,17.938 -11.941,28.828 0,10.89 4.241,21.128 11.941,28.828 3.644,3.643 7.855,6.511 12.435,8.522 l 5.451,-15.477 c -0.08,-0.013 -0.161,-0.034 -0.241,-0.067 -0.734,-0.303 -1.231,-1.394 -1.366,-1.721 -0.118,-0.289 -0.19,-0.305 -0.711,-0.35 -0.209,-0.018 -0.468,-0.04 -0.758,-0.103 -0.626,-0.134 -1.087,-0.483 -1.266,-0.957 -0.16,-0.424 -0.077,-0.904 0.228,-1.317 0.279,-0.377 0.656,-0.564 0.931,-0.701 h 0.001 c -0.487,-0.666 -1.266,-1.544 -1.79,-1.698 -0.409,-0.121 -0.693,-0.039 -0.994,0.047 -0.215,0.061 -0.44,0.125 -0.691,0.111 -0.176,-0.011 -0.433,-0.081 -0.653,-0.36 -0.361,-0.457 -0.479,-1.33 -0.31,-2.281 0.155,-0.869 -1.668,-2.723 -2.758,-3.831 -1.191,-1.212 -0.827,-2.867 -0.562,-4.076 0.082,-0.372 0.159,-0.722 0.163,-0.957 0.003,-0.142 0.011,-0.574 0.316,-0.844 0.308,-0.272 0.698,-0.232 1.112,-0.189 0.33,0.034 0.705,0.073 1.132,-0.016 0.148,-0.031 0.228,-0.06 0.267,-0.078 -0.002,-0.058 -0.016,-0.15 -0.026,-0.222 -0.058,-0.408 -0.147,-1.025 0.231,-1.881 0.263,-0.599 0.665,-0.753 0.956,-0.777 0.903,-0.078 1.843,1.087 2.27,1.694 0.338,-0.01 0.98,-0.036 1.718,-0.097 0.005,0 0.009,0 0.014,-0.001 -0.034,-0.183 -0.063,-0.454 0.115,-0.712 0.154,-0.225 0.422,-0.367 0.817,-0.437 0.35,-0.061 0.515,-0.153 0.635,-0.22 0.606,-0.336 0.852,0.011 1.261,0.586 l 0.077,0.109 c 0.134,-0.369 0.268,-1.095 0.328,-1.822 -0.041,-0.129 -0.025,-0.274 0.063,-0.392 l 0.142,-0.193 0.597,-1.116 -1.529,-0.011 -1.008,1.792 c -0.12,0.212 -0.391,0.285 -0.601,0.161 -0.222,-0.132 -0.281,-0.426 -0.128,-0.633 l 0.98,-1.326 -4.026,-0.03 1.238,1.495 c 0.161,0.195 0.127,0.486 -0.075,0.638 -0.202,0.151 -0.489,0.104 -0.632,-0.103 l -1.235,-1.795 -1.235,1.795 c -0.143,0.207 -0.43,0.254 -0.631,0.103 -0.203,-0.152 -0.237,-0.443 -0.076,-0.638 l 1.246,-1.505 -2.24,0.096 c -0.252,0.011 -0.463,-0.191 -0.463,-0.443 0,-0.253 0.211,-0.455 0.463,-0.444 l 2.24,0.096 -1.246,-1.505 c -0.161,-0.195 -0.127,-0.485 0.076,-0.637 0.201,-0.152 0.488,-0.105 0.631,0.103 l 1.235,1.794 1.235,-1.794 c 0.143,-0.208 0.43,-0.255 0.632,-0.103 0.202,0.152 0.236,0.442 0.075,0.637 l -1.238,1.495 4.026,-0.03 -0.98,-1.326 c -0.153,-0.207 -0.094,-0.501 0.128,-0.633 0.21,-0.124 0.481,-0.051 0.601,0.162 l 1.008,1.792 1.579,-0.012 c -0.11,-0.226 -0.241,-0.49 -0.376,-0.749 l -0.413,-0.56 c -0.112,-0.151 -0.11,-0.348 -0.015,-0.494 -0.063,-0.327 -0.098,-0.707 -0.135,-1.121 -0.063,-0.702 -0.133,-1.496 -0.362,-1.892 -0.136,-0.238 -0.145,-0.238 -0.396,-0.225 -0.286,0.015 -0.719,0.037 -1.267,-0.318 -0.398,-0.259 -0.62,-0.473 -0.798,-0.645 -0.245,-0.235 -0.392,-0.377 -0.951,-0.559 -0.18,-0.058 -0.267,-0.066 -0.3,-0.066 -0.018,0.019 -0.045,0.053 -0.066,0.08 -0.156,0.198 -0.418,0.531 -1.088,0.673 -0.526,0.112 -0.849,-0.068 -1.027,-0.238 -0.534,-0.51 -0.423,-1.485 -0.251,-2.525 0.035,-0.216 -0.474,-0.393 -1.197,-0.619 -0.395,-0.123 -0.843,-0.263 -1.271,-0.456 -0.72,-0.324 -0.808,-0.284 -1.494,0.026 -0.324,0.147 -0.769,0.349 -1.414,0.564 -0.921,0.307 -1.411,-0.143 -1.621,-0.437 -0.804,-1.129 -0.225,-3.683 0.41,-4.51 0.463,-0.604 0.444,-0.755 0.375,-1.317 -0.025,-0.198 -0.055,-0.445 -0.069,-0.751 -0.097,-2.083 0.472,-3.338 1.691,-3.733 0.491,-0.159 0.706,-0.613 1,-1.341 0.226,-0.559 0.482,-1.193 1.017,-1.612 0.155,-0.122 0.322,-0.253 0.444,-0.357 -0.109,-0.061 -0.235,-0.125 -0.314,-0.166 -0.482,-0.246 -0.599,-0.588 -0.612,-0.831 -0.035,-0.646 0.64,-1.177 0.914,-1.365 0.242,-0.247 1.608,-1.631 2.957,-2.675 1.319,-1.02 1.897,-0.803 2.886,-0.298 0.223,0.114 0.476,0.244 0.781,0.373 0.35,0.149 0.521,0.162 0.584,0.16 0.043,-0.167 -0.043,-0.623 -0.085,-0.851 l -0.008,-0.038 c -0.044,-0.238 0.025,-0.466 0.191,-0.627 0.45,-0.438 1.433,-0.277 3.738,0.224 0.616,0.134 1.254,0.273 1.798,0.365 0.631,0.106 1.032,0.106 1.262,0.078 -0.354,-0.244 -0.671,-0.486 -0.684,-0.914 -0.014,-0.47 0.378,-0.87 1.015,-1.362 0.395,-0.305 0.777,-0.459 1.142,-0.459 0.119,0 0.236,0.017 0.351,0.05 0.722,0.206 1.092,0.999 1.307,1.577 0.017,0.046 0.046,0.124 0.217,0.143 0.267,0.028 0.585,-0.122 0.657,-0.215 0.234,-0.772 1.475,-0.747 4.012,-0.626 l 0.096,0.004 c 0.869,0.042 1.19,0.321 1.519,0.682 0.261,0.287 0.557,0.613 2.081,0.709 2.185,0.138 3.526,1.575 4.506,2.624 0.467,0.501 0.871,0.934 1.23,1.098 1.541,0.707 1.816,1.704 2.138,3.271 0.129,0.629 0.092,1.11 0.065,1.462 -0.042,0.547 -0.045,0.591 0.457,0.81 0.405,0.177 0.668,0.443 0.781,0.792 0.226,0.696 -0.228,1.469 -0.667,2.215 -0.147,0.25 -0.285,0.485 -0.39,0.704 -0.213,0.441 -0.016,0.797 0.049,0.896 0.106,0.16 0.219,0.209 0.241,0.209 0.003,-0.002 0.013,-0.009 0.028,-0.028 0.458,-0.572 1.083,-1.908 1.438,-2.874 0.283,-0.767 0.723,-1.67 1.846,-2.552 0.292,-0.23 0.602,-0.322 0.919,-0.271 0.682,0.106 1.176,0.835 1.749,1.68 0.223,0.33 0.455,0.672 0.709,0.996 0.779,0.994 1.243,1.047 1.296,1.05 0.032,-0.005 0.064,-0.007 0.097,-0.006 2.177,0.104 2.689,0.729 3.272,1.745 0.178,0.312 0.363,0.634 0.664,0.982 1.156,1.34 0.091,2.47 -0.48,3.076 -0.187,0.198 -0.38,0.403 -0.447,0.542 -0.025,0.049 -0.037,0.084 -0.043,0.106 0.041,0.036 0.12,0.09 0.181,0.131 0.194,0.133 0.461,0.315 0.681,0.624 0.644,0.91 0.007,2.93 -0.742,3.633 -0.507,0.476 -0.506,0.585 -0.501,1.191 0.001,0.119 -0.005,0.218 -0.01,0.298 -0.003,0.046 -0.006,0.1 -0.006,0.131 0.115,0.125 0.681,0.423 0.871,0.523 0.457,0.24 0.919,0.55 0.878,1.028 -0.044,0.518 -0.604,0.698 -1.146,0.873 -0.112,0.036 -0.226,0.073 -0.334,0.112 0.074,0.128 0.155,0.291 0.225,0.497 0.2,0.59 -0.085,1.179 -0.337,1.698 -0.186,0.384 -0.378,0.781 -0.26,0.957 0.399,0.595 0.441,0.946 0.166,1.391 -0.019,0.032 -0.037,0.06 -0.052,0.088 0.262,0.191 0.293,0.461 0.266,0.671 -0.022,0.17 -0.08,0.316 -0.13,0.446 -0.106,0.271 -0.125,0.32 0.051,0.496 0.5,0.5 0.481,0.997 0.464,1.435 -0.009,0.211 -0.017,0.428 0.024,0.679 0.12,0.743 -0.08,1.015 -0.515,1.282 -0.116,0.071 -0.237,0.145 -0.376,0.289 -0.022,0.023 -0.034,0.039 -0.041,0.05 0.025,0.063 0.126,0.188 0.195,0.273 0.155,0.193 0.348,0.433 0.425,0.738 0.157,0.617 -0.337,0.921 -0.602,1.084 -0.27,0.167 -0.391,0.259 -0.423,0.446 -0.123,0.739 -0.734,1.334 -1.181,1.768 -0.149,0.145 -0.29,0.282 -0.366,0.38 -0.137,0.177 -0.189,0.356 0.001,0.652 0.297,0.462 -0.093,0.869 -0.464,1.172 0.304,0.019 0.439,0.224 0.475,0.292 0.201,0.379 -0.085,0.748 -0.447,1.216 -0.092,0.118 -0.178,0.23 -0.242,0.323 -0.116,0.171 -0.297,0.283 -0.509,0.314 -0.147,0.021 -0.306,10e-4 -0.467,-0.046 -0.002,0.168 -0.042,0.316 -0.119,0.449 -0.255,0.443 -0.775,0.452 -1.025,0.456 -0.034,0.001 -0.065,0.001 -0.089,0.003 -0.526,0.046 -0.791,-0.425 -0.922,-0.667 -0.201,0.039 -0.53,0.162 -0.666,0.298 -0.414,0.414 -0.586,0.515 -1.322,0.551 -0.115,0.005 -0.467,0.022 -0.718,-0.215 -0.244,-0.231 -0.246,-0.536 -0.248,-0.782 0,-0.078 -10e-4,-0.158 -0.008,-0.236 -0.118,-0.03 -0.356,-0.002 -0.457,0.056 -0.25,0.519 -1.036,0.687 -1.278,0.727 -0.052,0.009 -0.105,0.009 -0.157,0 -0.148,-0.025 -0.267,-0.059 -0.362,-0.085 -0.274,-0.077 -0.412,-0.115 -1.442,0.524 -0.424,0.262 -0.79,0.57 -1.145,0.868 -0.838,0.703 -1.788,1.501 -2.794,0.494 -0.321,-0.32 -0.607,-0.358 -0.91,-0.398 -0.57,-0.076 -1.126,-0.244 -1.125,-1.363 -0.038,-0.184 -0.417,-0.63 -2.011,-1.708 -0.155,-0.105 -0.28,-0.191 -0.36,-0.249 -0.06,-0.044 -0.119,-0.089 -0.179,-0.134 -0.247,-0.188 -0.468,-0.351 -0.721,-0.449 l 0.508,1.387 c 0.006,-0.001 0.012,-0.003 0.018,-0.004 0.145,-0.033 0.278,-0.049 0.401,-0.049 0.891,0 1.225,0.804 1.456,1.358 0.079,0.19 0.154,0.369 0.238,0.503 0.092,0.148 0.26,0.342 0.437,0.548 0.547,0.633 1.373,1.589 0.624,2.313 -0.275,0.266 -0.722,0.517 -1.214,0.689 l 7.637,20.87 C -9.415,65.191 -4.31,61.966 0,57.656 7.7,49.956 11.941,39.718 11.941,28.828 11.941,17.938 7.7,7.7 0,0 m -25.173,41.933 c -0.683,0.181 -1.354,0.383 -1.629,0.473 -0.134,0.163 -0.358,0.499 -0.323,0.775 0.008,0.058 0.03,0.233 0.331,0.418 0.313,0.193 0.585,0.33 0.824,0.45 0.634,0.32 1.135,0.572 1.555,1.477 0.018,0.04 0.075,0.161 0.343,0.211 0.089,0.017 0.188,0.022 0.292,0.02 z m 2.28,3.648 c 0.384,-0.133 0.738,-0.323 0.935,-0.513 0.211,-0.204 -0.321,-0.819 -0.672,-1.226 -0.199,-0.229 -0.386,-0.446 -0.511,-0.647 -0.118,-0.189 -0.208,-0.406 -0.296,-0.617 -0.294,-0.705 -0.455,-0.925 -0.869,-0.858 z m -8.386,-18.989 -2.203,2.832 -0.002,0.002 0.677,1.503 z m 3.016,4.314 0.667,-1.48 -0.002,-0.002 -2.28,-2.932 z m -1.089,23.685 c -0.13,0.315 -0.293,0.642 -0.45,0.96 -0.168,0.339 -0.407,0.821 -0.485,1.089 0.42,0.146 0.852,0.512 1.149,0.983 0.323,0.513 0.424,1.057 0.284,1.532 -0.231,0.78 -0.159,0.985 0.21,1.284 0.22,0.178 0.349,0.315 0.443,0.414 0.036,0.038 0.081,0.086 0.086,0.091 0.008,0.003 0.053,0.016 0.223,0.016 0.704,0 0.896,0.69 0.999,1.061 0.027,0.097 0.066,0.237 0.099,0.306 0.103,0.034 0.169,0.042 0.25,0.053 0.148,0.019 0.332,0.044 0.64,0.19 0.341,0.163 0.566,0.489 0.764,0.777 0.072,0.105 0.178,0.259 0.237,0.312 0.06,0.007 0.187,-0.013 0.275,-0.027 0.245,-0.038 0.548,-0.084 0.881,0.022 0.323,0.103 0.458,0.187 0.641,0.312 0.071,0.048 0.145,0.099 0.259,0.164 0.328,0.188 1.026,0.317 1.189,0.256 0.251,-0.146 0.418,-0.406 0.459,-0.715 0.032,-0.246 -0.028,-0.485 -0.152,-0.609 -0.139,-0.139 -0.479,0.178 -0.48,0.179 -0.143,0.145 -0.364,0.182 -0.547,0.092 -0.183,-0.089 -0.289,-0.287 -0.262,-0.489 0.025,-0.197 0.005,-0.445 -0.04,-0.538 -0.15,-10e-4 -0.261,0.052 -0.39,0.115 -0.167,0.082 -0.606,0.299 -0.944,-0.096 -0.057,-0.042 -0.23,-0.129 -0.359,-0.193 -0.526,-0.264 -1.181,-0.592 -1.336,-1.175 -0.061,-0.231 -0.042,-0.434 0.059,-0.603 0.049,-0.082 0.109,-0.143 0.172,-0.189 -0.102,-0.172 -0.183,-0.329 -0.251,-0.463 -0.048,-0.094 -0.105,-0.205 -0.146,-0.269 0,0 -0.001,0 -0.002,0 -0.281,-0.022 -0.477,-0.056 -0.826,-0.344 -0.029,-0.024 -0.06,-0.047 -0.089,-0.07 -0.285,-0.222 -0.762,-0.593 -0.411,-1.503 0.272,-0.709 0.695,-0.946 0.898,-1.061 0.006,-0.003 0.012,-0.007 0.018,-0.01 0.209,-0.234 0.834,-1.22 0.766,-1.715 -0.037,-0.276 -0.094,-0.542 -0.149,-0.798 -0.099,-0.461 -0.201,-0.937 -0.182,-1.443 0.011,-0.291 0.064,-0.554 0.111,-0.786 0.04,-0.203 0.102,-0.51 0.05,-0.572 -0.107,-0.132 -0.308,-0.324 -0.502,-0.51 -0.4,-0.384 -0.651,-0.634 -0.766,-0.863 -0.135,-0.271 -0.047,-0.528 0.016,-0.717 0.09,-0.265 0.149,-0.44 -0.234,-0.791 -0.324,-0.296 -1.311,-0.736 -4.174,-1.148 -0.082,-0.012 -0.148,-0.021 -0.195,-0.028 -0.55,-0.085 -1.054,-0.195 -1.19,-0.608 -0.124,-0.375 0.153,-0.655 0.336,-0.839 0.129,-0.131 0.291,-0.293 0.283,-0.409 -0.048,-0.732 -0.048,-0.732 -0.309,-0.881 -1.159,-0.662 -1.142,-1.07 -1.135,-1.223 0.01,-0.223 0.143,-0.414 0.357,-0.512 0.132,-0.061 0.372,-0.286 0.493,-0.439 -0.132,-0.24 -0.321,-0.728 0.178,-1.247 0.22,-0.229 0.601,-0.428 1.041,-0.659 0.299,-0.156 0.794,-0.415 0.907,-0.552 0.013,-0.042 0.025,-0.087 0.039,-0.133 0.128,-0.447 0.273,-0.953 0.654,-1.16 0.088,-0.047 0.182,-0.076 0.279,-0.084 0.078,-0.219 0.227,-0.554 0.611,-0.773 0.663,-0.38 1.113,-0.035 1.475,0.243 0.13,0.1 0.278,0.213 0.459,0.323 0.227,0.139 0.376,0.257 0.484,0.343 0.08,0.063 0.127,0.101 0.191,0.118 l -4.108,-11.279 -7.609,21.539 c 0.134,-0.067 0.26,-0.116 0.376,-0.139 0.067,-0.014 0.15,-0.038 0.244,-0.064 0.54,-0.15 1.445,-0.402 1.962,0.228 0.183,0.222 0.269,0.523 0.353,0.814 0.066,0.233 0.167,0.584 0.284,0.644 0.049,0.026 0.16,0.013 0.295,-0.035 0.094,-0.033 0.18,-0.063 0.259,-0.092 1.065,-0.381 1.2,-0.334 2.33,0.286 l 0.156,0.086 c 0.574,0.314 0.92,0.408 1.173,0.476 0.323,0.088 0.628,0.17 0.91,0.6 0.301,0.458 1.005,1.531 0.416,2.945 M -41.723,30.637 c -0.201,0.266 -0.536,0.322 -0.77,0.341 -1.121,0.092 -2.001,0.106 -2.037,0.106 -0.163,0.002 -0.316,-0.079 -0.405,-0.216 -0.473,-0.723 -1.237,-1.511 -1.547,-1.487 -0.044,0.003 -0.108,0.087 -0.163,0.212 -0.268,0.607 -0.21,1.009 -0.16,1.363 0.082,0.57 0.073,1.145 -0.988,1.366 -0.572,0.119 -1.065,0.068 -1.424,0.031 -0.122,-0.013 -0.279,-0.029 -0.369,-0.026 -0.004,0.028 -0.009,0.071 -0.01,0.131 -0.006,0.329 -0.089,0.706 -0.185,1.143 -0.231,1.052 -0.519,2.361 0.312,3.205 1.845,1.877 3.238,3.412 3.015,4.665 -0.151,0.85 0.011,1.399 0.118,1.524 0.089,-0.004 0.206,-0.038 0.339,-0.076 0.359,-0.102 0.85,-0.243 1.523,-0.045 1.067,0.315 2.236,1.963 2.46,2.291 0.16,0.235 0.153,0.443 0.118,0.576 -0.084,0.323 -0.376,0.468 -0.634,0.596 -0.209,0.104 -0.446,0.222 -0.589,0.414 -0.079,0.107 -0.16,0.266 -0.104,0.416 0.062,0.163 0.278,0.299 0.577,0.364 0.231,0.049 0.439,0.067 0.639,0.084 0.546,0.047 1.166,0.101 1.509,0.935 0.308,0.746 0.715,1.174 0.86,1.21 0.071,-0.031 0.154,-0.076 0.245,-0.129 l 6.323,-17.955 c -0.214,0.036 -0.429,-0.094 -0.49,-0.312 l -0.398,-1.337 -0.951,1.204 0.788,1.876 c 0.094,0.225 -0.015,0.484 -0.242,0.573 -0.24,0.094 -0.509,-0.039 -0.578,-0.288 l -0.439,-1.565 -1.088,1.379 0.796,1.895 c 0.094,0.225 -0.015,0.484 -0.242,0.573 -0.24,0.095 -0.509,-0.039 -0.579,-0.287 l -0.444,-1.588 -2.495,3.16 1.94,-0.059 c 0.253,-0.008 0.461,0.197 0.456,0.45 -0.004,0.252 -0.217,0.45 -0.469,0.435 l -2.174,-0.126 0.658,2.076 c 0.076,0.241 -0.063,0.496 -0.306,0.562 -0.245,0.067 -0.495,-0.084 -0.55,-0.332 l -0.423,-1.908 -1.299,1.828 c -0.147,0.206 -0.435,0.248 -0.635,0.093 -0.199,-0.155 -0.229,-0.445 -0.066,-0.638 l 1.452,-1.709 -1.954,0.059 c -0.253,0.008 -0.461,-0.197 -0.456,-0.45 0.004,-0.252 0.217,-0.45 0.468,-0.435 l 2.175,0.126 -0.658,-2.076 c -0.076,-0.241 0.063,-0.496 0.306,-0.562 0.245,-0.067 0.495,0.084 0.55,0.332 l 0.42,1.894 2.448,-3.196 -1.648,-0.04 c -0.258,-0.006 -0.454,-0.234 -0.421,-0.489 0.031,-0.243 0.255,-0.412 0.496,-0.376 l 2.033,0.305 1.068,-1.395 -1.625,-0.039 c -0.258,-0.006 -0.453,-0.234 -0.421,-0.49 0.031,-0.242 0.255,-0.412 0.496,-0.375 l 2.012,0.301 0.933,-1.217 -1.394,-0.058 c -0.258,-0.006 -0.454,-0.234 -0.421,-0.489 0.031,-0.243 0.255,-0.412 0.496,-0.376 l 1.785,0.315 2.367,-3.044 h -3.443 l -0.847,1.602 c -0.12,0.213 -0.391,0.286 -0.601,0.161 -0.222,-0.131 -0.281,-0.426 -0.128,-0.633 l 0.81,-1.135 -1.445,-0.011 -0.925,1.728 c -0.133,1.752 -0.488,2.721 -1.054,2.882 -0.19,0.054 -0.562,0.069 -0.918,-0.428 l -0.16,-0.225 c -0.059,-0.083 -0.117,-0.164 -0.165,-0.23 -0.165,0.082 -0.414,0.184 -0.791,0.25 -0.076,0.013 -0.128,0.027 -0.162,0.039 0.003,0.018 0.006,0.036 0.009,0.051 0.034,0.174 0.09,0.466 -0.11,0.73 m 33.546,9.416 c 0.175,-0.147 0.429,-0.149 0.606,-0.005 0.271,0.22 0.625,0.429 0.806,0.483 0.029,-0.04 0.06,-0.081 0.091,-0.122 -0.266,-0.012 -0.546,-0.122 -0.666,-0.504 -0.154,-0.487 0.291,-0.829 0.72,-1.161 0.095,-0.073 0.235,-0.18 0.328,-0.265 -0.257,-0.53 -0.203,-1.07 0.162,-1.542 0.116,-0.151 0.273,-0.304 0.455,-0.481 0.372,-0.361 0.835,-0.812 0.907,-1.243 0.105,-0.633 0.56,-0.913 0.862,-1.098 0.047,-0.03 0.111,-0.069 0.156,-0.101 -0.044,-0.095 -0.134,-0.207 -0.222,-0.315 -0.24,-0.298 -0.738,-0.917 -0.097,-1.58 0.223,-0.232 0.42,-0.352 0.563,-0.44 0.031,-0.019 0.07,-0.043 0.095,-0.061 0.003,-0.035 0.002,-0.111 -0.022,-0.258 -0.056,-0.345 -0.045,-0.635 -0.036,-0.867 0.016,-0.404 0.012,-0.529 -0.185,-0.726 -0.616,-0.616 -0.388,-1.201 -0.265,-1.515 0.012,-0.03 0.023,-0.059 0.033,-0.087 -0.325,-0.222 -0.318,-0.563 -0.245,-0.826 0.058,-0.207 0.147,-0.351 0.205,-0.445 0.009,-0.015 0.021,-0.033 0.029,-0.049 -0.013,-0.04 -0.055,-0.132 -0.175,-0.312 -0.423,-0.629 -0.081,-1.335 0.193,-1.903 0.172,-0.355 0.367,-0.757 0.293,-0.977 -0.082,-0.242 -0.181,-0.385 -0.26,-0.5 -0.098,-0.143 -0.246,-0.358 -0.16,-0.635 0.096,-0.307 0.395,-0.42 0.71,-0.539 0.141,-0.053 0.286,-0.1 0.427,-0.146 0.075,-0.024 0.164,-0.053 0.249,-0.082 -0.038,-0.022 -0.082,-0.046 -0.131,-0.072 -1.153,-0.606 -1.418,-0.822 -1.372,-1.555 0.004,-0.066 0.009,-0.141 0.008,-0.231 -0.006,-0.744 0.026,-1.166 0.801,-1.893 0.519,-0.486 0.905,-1.982 0.617,-2.389 -0.121,-0.17 -0.276,-0.276 -0.441,-0.388 -0.304,-0.207 -0.87,-0.593 -0.457,-1.44 0.131,-0.269 0.363,-0.515 0.609,-0.777 0.729,-0.773 0.992,-1.177 0.453,-1.803 -0.36,-0.417 -0.577,-0.796 -0.769,-1.13 C -3.75,9.294 -3.976,8.899 -5.746,8.808 -6.056,8.843 -6.827,8.754 -7.891,7.397 -8.165,7.048 -8.406,6.692 -8.639,6.348 -9.01,5.8 -9.473,5.117 -9.746,5.074 -9.764,5.071 -9.817,5.063 -9.931,5.153 c -0.935,0.735 -1.293,1.459 -1.541,2.134 -0.272,0.739 -0.955,2.347 -1.589,3.139 -0.335,0.42 -0.877,0.502 -1.347,0.206 -0.618,-0.389 -1.011,-1.375 -0.57,-2.29 0.123,-0.255 0.277,-0.518 0.427,-0.773 0.285,-0.485 0.676,-1.15 0.582,-1.44 -0.025,-0.078 -0.112,-0.15 -0.256,-0.213 -1.122,-0.49 -1.073,-1.133 -1.025,-1.755 0.025,-0.328 0.054,-0.7 -0.048,-1.197 -0.313,-1.524 -0.519,-2.101 -1.603,-2.598 -0.53,-0.243 -0.993,-0.739 -1.53,-1.314 -0.967,-1.036 -2.063,-2.21 -3.87,-2.324 -1.764,-0.112 -2.278,-0.527 -2.724,-1.017 -0.21,-0.231 -0.316,-0.347 -0.861,-0.373 l -0.096,-0.004 c -1.015,-0.049 -2.687,-0.129 -3.091,0.048 -0.198,0.47 -0.84,0.771 -1.389,0.796 -0.595,0.024 -1.065,-0.259 -1.252,-0.765 -0.276,-0.74 -0.521,-0.949 -0.678,-0.994 -0.199,-0.056 -0.463,0.103 -0.65,0.248 -0.4,0.309 -0.555,0.479 -0.615,0.561 0.074,0.064 0.206,0.154 0.31,0.225 0.528,0.361 0.589,0.804 0.47,1.099 -0.23,0.571 -1.071,0.738 -2.498,0.497 -0.566,-0.095 -1.214,-0.236 -1.841,-0.373 -0.906,-0.196 -2.218,-0.48 -2.748,-0.463 0.101,0.57 0.167,1.215 -0.282,1.577 -0.458,0.368 -1.109,0.156 -1.56,-0.036 -0.336,-0.142 -0.605,-0.28 -0.842,-0.401 -0.802,-0.41 -0.968,-0.495 -1.871,0.203 -1.4,1.084 -2.876,2.605 -2.891,2.621 -0.024,0.024 -0.051,0.047 -0.08,0.066 -0.237,0.157 -0.481,0.406 -0.526,0.53 0.015,0.013 0.043,0.032 0.088,0.056 0.521,0.265 0.931,0.475 0.973,0.905 0.042,0.436 -0.289,0.696 -0.949,1.212 -0.334,0.263 -0.522,0.728 -0.721,1.22 -0.3,0.742 -0.64,1.583 -1.589,1.89 -0.771,0.25 -1.11,1.16 -1.034,2.784 0.012,0.27 0.039,0.487 0.063,0.678 0.089,0.723 0.104,1.141 -0.565,2.013 -0.189,0.246 -0.443,0.882 -0.554,1.696 -0.102,0.752 -0.04,1.397 0.164,1.683 0.054,0.076 0.155,0.217 0.546,0.087 0.599,-0.2 1,-0.382 1.323,-0.528 0.829,-0.375 1.208,-0.508 2.276,-0.027 0.376,0.169 0.777,0.294 1.164,0.416 0.95,0.296 2.025,0.632 1.852,1.681 -0.162,0.98 -0.173,1.546 -0.03,1.682 0.008,0.009 0.064,0.019 0.173,-0.004 0.332,-0.071 0.419,-0.18 0.538,-0.332 0.312,-0.397 0.643,-0.578 1.407,-0.329 0.767,0.249 1.034,0.506 1.316,0.778 0.165,0.159 0.335,0.323 0.657,0.532 0.289,0.187 0.47,0.178 0.7,0.166 0.443,-0.023 0.874,0.014 1.27,0.7 0.332,0.577 0.409,1.444 0.484,2.282 0.049,0.544 0.104,1.16 0.228,1.386 0.31,0.563 0.655,1.276 0.817,1.615 l 1.417,-0.01 -0.81,-1.136 c -0.153,-0.207 -0.094,-0.502 0.128,-0.633 0.21,-0.124 0.481,-0.052 0.601,0.161 l 0.847,1.602 h 0.003 3.466 l -2.305,-3.177 -1.794,0.255 c -0.242,0.028 -0.46,-0.148 -0.483,-0.391 -0.024,-0.257 0.179,-0.478 0.437,-0.476 l 1.395,-0.011 -0.891,-1.248 -2.021,0.235 c -0.243,0.028 -0.461,-0.149 -0.484,-0.392 -0.024,-0.257 0.18,-0.478 0.438,-0.476 l 1.625,0.015 -1.021,-1.429 -2.042,0.236 c -0.242,0.028 -0.461,-0.148 -0.483,-0.391 -0.024,-0.257 0.179,-0.478 0.437,-0.476 l 1.649,0.015 -2.34,-3.276 -0.484,1.88 c -0.063,0.245 -0.318,0.388 -0.56,0.313 -0.241,-0.074 -0.371,-0.334 -0.287,-0.572 l 0.727,-2.053 -2.178,0.054 c -0.252,0.006 -0.458,-0.199 -0.454,-0.451 0.004,-0.253 0.219,-0.451 0.472,-0.435 l 1.95,0.125 -1.394,-1.757 c -0.157,-0.198 -0.117,-0.487 0.088,-0.635 0.204,-0.149 0.491,-0.097 0.63,0.114 l 1.238,1.87 0.487,-1.893 c 0.063,-0.245 0.318,-0.388 0.56,-0.313 0.241,0.074 0.371,0.334 0.287,0.571 l -0.727,2.054 2.178,-0.054 c 0.252,-0.006 0.458,0.199 0.454,0.451 -0.004,0.253 -0.219,0.451 -0.471,0.435 l -1.937,-0.124 2.388,3.241 0.497,-1.572 c 0.078,-0.246 0.351,-0.37 0.588,-0.268 0.224,0.097 0.324,0.359 0.222,0.581 l -0.859,1.868 1.043,1.414 0.49,-1.55 c 0.078,-0.246 0.351,-0.37 0.588,-0.268 0.224,0.097 0.324,0.359 0.222,0.581 l -0.85,1.849 0.91,1.234 0.443,-1.322 c 0.078,-0.246 0.351,-0.371 0.588,-0.269 0.224,0.097 0.324,0.36 0.222,0.582 l -0.799,1.626 0.002,0.002 2.668,3.678 h 0.157 0.029 0.164 l 2.668,-3.678 0.002,-0.002 -0.799,-1.626 c -0.102,-0.222 -0.002,-0.485 0.222,-0.582 0.237,-0.102 0.51,0.023 0.588,0.269 l 0.443,1.322 0.91,-1.234 -0.85,-1.849 c -0.102,-0.222 -0.001,-0.484 0.223,-0.581 0.236,-0.102 0.51,0.022 0.587,0.268 l 0.491,1.55 1.042,-1.414 -0.859,-1.868 c -0.102,-0.222 -0.002,-0.484 0.222,-0.581 0.237,-0.102 0.51,0.022 0.588,0.268 l 0.497,1.572 2.389,-3.241 -1.937,0.124 c -0.253,0.016 -0.468,-0.182 -0.472,-0.435 -0.004,-0.252 0.202,-0.457 0.454,-0.451 l 2.178,0.054 -0.727,-2.054 c -0.084,-0.237 0.047,-0.497 0.287,-0.571 0.242,-0.075 0.497,0.068 0.56,0.313 l 0.487,1.893 1.238,-1.87 c 0.139,-0.211 0.426,-0.263 0.631,-0.114 0.204,0.148 0.244,0.437 0.087,0.635 l -1.394,1.757 1.951,-0.125 c 0.252,-0.016 0.467,0.182 0.471,0.435 0.004,0.252 -0.202,0.457 -0.454,0.451 l -2.177,-0.054 0.726,2.053 c 0.084,0.238 -0.046,0.498 -0.287,0.572 -0.242,0.075 -0.497,-0.068 -0.56,-0.313 l -0.483,-1.88 -2.34,3.276 1.648,-0.015 c 0.258,-0.002 0.461,0.219 0.438,0.476 -0.023,0.243 -0.241,0.419 -0.484,0.391 l -2.042,-0.236 -1.021,1.429 1.626,-0.015 c 0.257,-0.002 0.461,0.219 0.437,0.476 -0.023,0.243 -0.241,0.42 -0.484,0.392 l -2.02,-0.235 -0.892,1.248 1.395,0.011 c 0.258,-0.002 0.461,0.219 0.437,0.476 -0.022,0.243 -0.24,0.419 -0.483,0.391 l -1.794,-0.255 -2.304,3.177 h 3.458 0.003 l 0.847,-1.602 c 0.12,-0.213 0.391,-0.285 0.601,-0.161 0.222,0.131 0.282,0.426 0.129,0.633 l -0.811,1.136 1.534,0.011 0.997,-1.773 c 0.12,-0.213 0.391,-0.286 0.601,-0.162 0.222,0.132 0.281,0.426 0.128,0.633 l -0.967,1.307 1.757,0.014 1.008,-1.792 c 0.119,-0.213 0.39,-0.286 0.601,-0.162 0.221,0.132 0.281,0.426 0.128,0.633 l -0.981,1.326 4.026,0.03 -1.238,-1.495 c -0.161,-0.195 -0.127,-0.485 0.076,-0.637 0.201,-0.152 0.488,-0.105 0.631,0.103 l 1.235,1.794 1.236,-1.794 c 0.143,-0.208 0.429,-0.255 0.631,-0.103 0.202,0.152 0.237,0.442 0.075,0.637 l -1.246,1.505 2.24,-0.096 c 0.253,-0.011 0.463,0.191 0.463,0.444 0,0.252 -0.21,0.454 -0.463,0.443 l -2.24,-0.096 1.246,1.505 c 0.162,0.195 0.127,0.486 -0.075,0.638 -0.202,0.151 -0.488,0.104 -0.631,-0.103 l -1.236,-1.795 -1.235,1.795 c -0.143,0.207 -0.43,0.254 -0.631,0.103 -0.203,-0.152 -0.237,-0.443 -0.076,-0.638 l 1.238,-1.495 -4.026,0.03 0.981,1.326 c 0.153,0.207 0.093,0.501 -0.128,0.633 -0.211,0.124 -0.482,0.051 -0.601,-0.161 l -1.008,-1.792 -1.757,0.013 0.967,1.307 c 0.153,0.207 0.094,0.501 -0.128,0.633 -0.21,0.124 -0.481,0.051 -0.601,-0.161 l -0.997,-1.774 -1.534,0.012 0.811,1.135 c 0.153,0.207 0.093,0.502 -0.129,0.633 -0.21,0.125 -0.481,0.052 -0.601,-0.161 l -0.847,-1.602 h -3.449 l 2.367,3.044 1.784,-0.315 c 0.242,-0.036 0.466,0.133 0.496,0.376 0.033,0.255 -0.163,0.483 -0.421,0.489 l -1.393,0.058 0.932,1.217 2.012,-0.301 c 0.241,-0.037 0.465,0.133 0.496,0.375 0.033,0.256 -0.163,0.484 -0.421,0.49 l -1.625,0.039 1.068,1.395 2.033,-0.305 c 0.242,-0.036 0.466,0.133 0.496,0.376 0.033,0.255 -0.163,0.483 -0.421,0.489 l -1.648,0.04 2.448,3.196 0.42,-1.894 c 0.055,-0.248 0.306,-0.399 0.55,-0.332 0.243,0.066 0.382,0.321 0.306,0.562 l -0.658,2.076 2.175,-0.126 c 0.251,-0.015 0.464,0.183 0.469,0.435 0.004,0.253 -0.204,0.458 -0.457,0.45 l -1.953,-0.059 1.451,1.709 c 0.163,0.193 0.134,0.483 -0.066,0.638 -0.199,0.155 -0.488,0.113 -0.634,-0.093 l -1.3,-1.828 -0.423,1.908 c -0.055,0.248 -0.305,0.399 -0.549,0.332 -0.243,-0.066 -0.382,-0.321 -0.306,-0.562 l 0.657,-2.076 -2.174,0.126 c -0.252,0.015 -0.465,-0.183 -0.469,-0.435 -0.005,-0.253 0.204,-0.458 0.457,-0.45 l 1.94,0.059 -2.496,-3.16 -0.444,1.588 c -0.07,0.248 -0.339,0.382 -0.579,0.287 -0.227,-0.089 -0.336,-0.348 -0.241,-0.573 l 0.796,-1.895 -1.089,-1.379 -0.438,1.565 c -0.07,0.249 -0.339,0.382 -0.579,0.288 -0.227,-0.089 -0.336,-0.348 -0.242,-0.573 l 0.788,-1.876 -0.95,-1.204 -0.399,1.337 c -0.058,0.208 -0.257,0.334 -0.461,0.314 l 2.511,6.862 c 0.755,0.036 1.259,0.416 1.677,0.732 0.055,0.042 0.111,0.084 0.167,0.125 0.073,0.054 0.189,0.132 0.33,0.228 1.538,1.041 2.427,1.78 2.427,2.482 0,0.267 0.036,0.363 0.049,0.388 0.044,0.018 0.163,0.034 0.252,0.046 0.362,0.048 0.908,0.12 1.457,0.669 0.336,0.336 0.547,0.258 1.511,-0.551 0.362,-0.304 0.773,-0.649 1.255,-0.947 1.259,-0.782 1.62,-0.794 2.199,-0.632 0.062,0.017 0.121,0.034 0.186,0.048 0.209,-0.046 0.437,-0.134 0.503,-0.197 0.193,-0.454 0.834,-0.641 1.349,-0.587 0.486,0.051 0.827,0.333 0.89,0.735 0.027,0.17 0.028,0.324 0.029,0.448 0,0.017 10e-4,0.034 10e-4,0.052 0.412,-0.02 0.418,-0.026 0.664,-0.272 0.352,-0.352 1.507,-0.855 1.954,-0.409 0.09,0.091 0.149,0.2 0.212,0.316 0.027,0.05 0.071,0.132 0.106,0.183 0.02,-10e-4 0.04,-10e-4 0.061,-10e-4 0.051,-10e-4 0.142,-0.003 0.205,-0.012 -0.011,-0.093 -0.064,-0.313 -0.3,-0.735 -0.111,-0.199 -0.065,-0.449 0.109,-0.596 m -20.651,29.544 c 4.476,0 8.841,-0.718 12.966,-2.097 l -7.636,-20.969 c -0.253,0.028 -0.498,0.026 -0.719,-0.015 -0.554,-0.103 -0.804,-0.414 -0.917,-0.656 -0.304,-0.655 -0.601,-0.805 -1.193,-1.103 -0.253,-0.127 -0.54,-0.272 -0.883,-0.483 -0.518,-0.319 -0.667,-0.719 -0.701,-0.998 -0.093,-0.757 0.529,-1.417 0.6,-1.489 l 0.064,-0.066 0.086,-0.03 c 0.177,-0.064 0.933,-0.295 1.716,-0.505 l -0.604,-1.657 c -0.56,0.048 -0.779,-0.044 -1.127,-0.321 -0.098,-0.078 -0.21,-0.167 -0.387,-0.275 -0.224,-0.136 -0.401,-0.272 -0.543,-0.381 -0.31,-0.237 -0.31,-0.237 -0.425,-0.172 -0.114,0.066 -0.152,0.164 -0.209,0.331 -0.172,0.503 -0.458,0.612 -0.712,0.59 -0.067,0.138 -0.141,0.395 -0.18,0.533 -0.018,0.062 -0.035,0.121 -0.052,0.176 -0.135,0.445 -0.706,0.744 -1.367,1.09 -0.304,0.159 -0.684,0.358 -0.797,0.476 -0.036,0.037 -0.052,0.062 -0.058,0.074 0.01,0.027 0.041,0.078 0.061,0.11 0.03,0.05 0.064,0.106 0.092,0.171 0.19,0.447 -0.283,0.965 -0.667,1.274 0.119,0.091 0.279,0.2 0.465,0.306 0.677,0.387 0.731,0.784 0.787,1.645 0.027,0.413 -0.181,0.728 -0.379,0.954 0.043,0.007 0.092,0.015 0.145,0.024 0.045,0.007 0.108,0.016 0.186,0.027 1.612,0.232 3.851,0.627 4.682,1.388 0.839,0.77 0.605,1.463 0.492,1.797 -0.006,0.017 -0.012,0.036 -0.018,0.054 0.112,0.138 0.364,0.38 0.526,0.534 0.224,0.216 0.436,0.419 0.58,0.596 0.335,0.41 0.234,0.914 0.145,1.359 -0.041,0.207 -0.084,0.421 -0.092,0.636 -0.016,0.388 0.066,0.767 0.16,1.207 0.059,0.274 0.12,0.557 0.163,0.868 0.14,1.025 -0.932,2.461 -1.138,2.608 -0.031,0.023 -0.072,0.048 -0.123,0.076 -0.138,0.078 -0.327,0.184 -0.477,0.573 -0.076,0.197 -0.059,0.263 -0.058,0.263 0.011,0.028 0.108,0.103 0.166,0.148 0.036,0.028 0.073,0.057 0.11,0.087 0.143,0.118 0.143,0.118 0.296,0.13 0.034,0.003 0.071,0.005 0.111,0.009 0.435,0.043 0.625,0.415 0.809,0.776 0.087,0.171 0.187,0.365 0.322,0.568 0.075,0.112 0.274,0.409 0.151,0.724 -0.058,0.15 -0.161,0.239 -0.262,0.295 0.192,0.158 0.56,0.342 0.724,0.424 0.199,0.1 0.361,0.181 0.487,0.272 0.186,-0.091 0.481,-0.224 0.879,-0.194 0.253,0.019 0.469,0.132 0.627,0.328 0.102,0.126 0.168,0.276 0.21,0.428 0.098,-0.027 0.203,-0.044 0.311,-0.044 h 0.003 c 0.283,0 0.542,0.11 0.751,0.318 0.335,0.335 0.494,0.86 0.423,1.404 -0.079,0.605 -0.416,1.121 -0.925,1.416 -0.591,0.342 -1.769,-0.043 -2.137,-0.253 -0.148,-0.085 -0.246,-0.151 -0.324,-0.205 -0.127,-0.087 -0.18,-0.123 -0.394,-0.191 -0.12,-0.039 -0.271,-0.015 -0.447,0.012 -0.223,0.034 -0.477,0.074 -0.74,-0.014 -0.308,-0.103 -0.507,-0.392 -0.7,-0.671 -0.117,-0.171 -0.279,-0.405 -0.39,-0.458 -0.172,-0.082 -0.241,-0.091 -0.356,-0.106 -0.123,-0.017 -0.276,-0.037 -0.514,-0.125 -0.412,-0.153 -0.531,-0.579 -0.626,-0.922 -0.031,-0.112 -0.08,-0.289 -0.124,-0.366 -0.525,-0.006 -0.706,-0.136 -0.959,-0.403 -0.08,-0.085 -0.18,-0.191 -0.351,-0.33 -0.893,-0.725 -0.749,-1.529 -0.524,-2.292 0.061,-0.205 -0.003,-0.481 -0.176,-0.756 -0.216,-0.342 -0.532,-0.577 -0.713,-0.606 -0.235,-0.038 -0.421,-0.169 -0.523,-0.368 -0.244,-0.474 0.078,-1.125 0.525,-2.027 0.15,-0.303 0.306,-0.617 0.424,-0.902 0.365,-0.876 0.019,-1.522 -0.333,-2.058 -0.084,-0.128 -0.094,-0.131 -0.364,-0.204 -0.282,-0.077 -0.708,-0.192 -1.38,-0.56 l -0.158,-0.087 c -0.441,-0.242 -0.707,-0.388 -0.861,-0.408 -0.124,-0.016 -0.291,0.042 -0.691,0.185 -0.08,0.028 -0.168,0.06 -0.264,0.093 -0.4,0.141 -0.753,0.135 -1.047,-0.017 -0.481,-0.249 -0.637,-0.791 -0.762,-1.227 -0.048,-0.17 -0.115,-0.402 -0.173,-0.473 -0.124,-0.151 -0.74,0.021 -0.972,0.085 -0.112,0.031 -0.218,0.061 -0.311,0.08 -0.137,0.027 -0.563,0.305 -0.817,0.47 -0.085,0.056 -0.168,0.11 -0.25,0.162 l -5.75,16.277 c 4.862,2.002 10.118,3.053 15.535,3.053 M 2.914,60.57 c -8.479,8.478 -19.751,13.147 -31.742,13.147 -11.99,0 -23.263,-4.669 -31.742,-13.147 -8.478,-8.479 -13.147,-19.752 -13.147,-31.742 0,-11.99 4.669,-23.263 13.147,-31.742 8.479,-8.478 19.752,-13.148 31.742,-13.148 11.991,0 23.263,4.67 31.742,13.148 8.478,8.479 13.148,19.752 13.148,31.742 0,11.99 -4.67,23.263 -13.148,31.742"
       fill="#010101"
       id="path7" />
    <path
       transform="matrix(1,0,0,-1,98.0491,81.0443)"
       d="M 0,0 C 0.35,0.251 -0.059,0.571 -0.071,0.894 -0.124,1.178 0.201,1.852 -0.351,1.714 -0.646,1.63 -0.872,1.501 -1,1.186 -1.049,1.067 -1.395,1.06 -1.321,0.81 -1.279,0.246 -0.482,-0.076 0,0"
       fill="#010101"
       id="path8" />
    <path
       transform="matrix(1,0,0,-1,96.1762,81.93929)"
       d="M 0,0 C 0.231,-0.077 0.595,-0.594 0.72,-0.13 0.779,0.121 0.777,0.341 0.598,0.565 0.53,0.649 0.667,0.908 0.452,0.956 0.019,1.157 -0.546,0.701 -0.688,0.315 -0.647,-0.046 -0.243,0.124 0,0"
       fill="#010101"
       id="path9" />
    <path
       transform="matrix(1,0,0,-1,99.9843,78.88819)"
       d="M 0,0 C 0.414,0.18 1.117,0.571 1.181,1.162 1.201,1.339 1.173,1.681 0.769,1.975 0.168,2.411 -0.252,2.981 -0.247,3.157 -0.058,3.346 0.351,3.514 0.607,3.453 0.686,3.434 0.765,3.394 0.813,3.235 L 0.833,3.169 0.874,3.113 C 1.366,2.451 2.6,0.39 1.841,-0.369 0.869,-1.34 0.406,-1.103 -0.36,-0.708 -0.59,-0.59 -0.648,-0.496 -0.651,-0.477 -0.65,-0.425 -0.494,-0.216 0,0 m -0.723,-1.413 c 0.408,-0.21 0.843,-0.433 1.348,-0.433 0.507,0 1.084,0.225 1.776,0.917 C 3.718,0.388 1.909,3.036 1.548,3.534 1.418,3.893 1.152,4.136 0.793,4.223 0.204,4.365 -0.481,4.057 -0.827,3.696 -0.984,3.533 -1.056,3.321 -1.035,3.083 -0.962,2.262 0.251,1.371 0.302,1.334 0.378,1.279 0.393,1.247 0.394,1.247 0.386,1.187 0.206,0.955 -0.317,0.726 c -0.912,-0.398 -1.116,-0.86 -1.126,-1.178 -0.008,-0.265 0.11,-0.647 0.72,-0.961"
       fill="#010101"
       id="path10" />
    <path
       transform="matrix(1,0,0,-1,102.1323,71.59709)"
       d="m 0,0 c 0.06,0.051 0.113,0.075 0.17,0.075 0.047,0 0.098,-0.017 0.158,-0.051 0.379,-0.212 0.4,-0.424 0.343,-1.519 L 0.658,-1.749 C 0.654,-1.834 0.642,-2.093 0.277,-2.147 -0.007,-2.188 -0.387,-2.057 -0.479,-1.801 -0.612,-1.427 -0.405,-0.342 0,0 m 0.165,-2.947 c 0.078,0 0.155,0.005 0.229,0.016 0.621,0.093 1.026,0.531 1.056,1.144 l 0.012,0.251 C 1.518,-0.463 1.555,0.245 0.716,0.716 0.297,0.951 -0.15,0.91 -0.511,0.605 c -0.66,-0.557 -0.962,-1.977 -0.714,-2.672 0.213,-0.597 0.834,-0.88 1.39,-0.88"
       fill="#010101"
       id="path11" />
    <path
       transform="matrix(1,0,0,-1,108.3803,67.70169)"
       d="M 0,0 C 0.238,-0.176 -0.048,-0.249 0.429,-0.137 0.906,-0.025 0.827,0.006 1.057,0.01 1.288,0.015 1.272,-0.152 1.543,0.047 1.813,0.246 2.012,0.206 1.869,0.381 1.726,0.556 1.761,0.691 1.988,0.644 2.215,0.597 2.258,0.522 2.37,0.594 2.481,0.667 2.489,0.707 2.624,0.699 2.759,0.691 2.825,0.665 2.744,0.773 2.664,0.882 2.633,0.845 2.664,0.935 c 0.032,0.09 -0.008,0.272 -0.12,0.279 0,0 -0.268,0.066 -0.316,0.087 C 2.18,1.322 2.016,1.327 1.928,1.304 1.841,1.28 1.837,1.138 1.638,1.122 1.439,1.105 0.938,1.001 0.938,1.001 0.938,1.001 0.914,1.041 0.66,0.85 0.405,0.659 0.27,0.54 0.222,0.468 0.175,0.397 0.111,0.357 0.071,0.269 0.032,0.182 -0.238,0.176 0,0"
       fill="#010101"
       id="path12" />
    <path
       transform="matrix(1,0,0,-1,105.7543,68.99369)"
       d="m 0,0 c 0.33,-0.248 0.316,0.079 0.455,0.108 0.139,0.029 0.235,0.089 0.37,0 C 0.96,0.018 1.196,-0.048 1.292,0.045 1.387,0.138 1.427,0.287 1.746,0.366 2.066,0.445 2.002,0.605 2.26,0.807 2.518,1.009 2.568,0.89 2.439,1.105 2.309,1.321 1.886,1.198 1.886,1.198 c 0,0 -0.213,0.03 -0.301,0 C 1.496,1.169 1.321,1.287 1.226,1.273 1.13,1.26 1.071,1.05 0.888,0.837 0.704,0.625 0.514,0.873 0.389,1.018 0.264,1.163 0.059,0.94 -0.007,0.807 -0.073,0.674 -0.257,0.619 -0.36,0.495 -0.462,0.37 -0.33,0.248 0,0"
       fill="#010101"
       id="path13" />
    <path
       transform="matrix(1,0,0,-1,112.281,66.19109)"
       d="m 0,0 c -0.078,-0.119 -0.229,-0.133 -0.069,-0.208 0.161,-0.075 0.277,-0.343 0.441,-0.161 0.163,0.182 0.081,0.284 0.272,0.311 0.191,0.028 0.355,0.017 0.375,0.111 C 1.04,0.147 1.121,0.394 0.876,0.399 0.631,0.404 0.507,0.288 0.399,0.331 0.291,0.373 0.004,0.283 -0.153,0.174 -0.226,0.123 0.078,0.119 0,0"
       fill="#010101"
       id="path14" />
    <path
       transform="matrix(1,0,0,-1,113.8252,66.57939)"
       d="m 0,0 c 0.31,-0.308 0.46,0.214 0.554,0.336 0.094,0.122 0,0.179 0,0.282 0,0.103 -0.207,0.225 -0.451,0.225 -0.366,0 -0.31,-0.187 -0.246,-0.385 C -0.079,0.26 -0.31,0.308 0,0"
       fill="#010101"
       id="path15" />
  </g>
</svg>
